<svg width="387" height="450" viewBox="0 0 387 450" fill="none" xmlns="http://www.w3.org/2000/svg">
<path d="M51.489 0C23.0524 0 0 23.0524 0 51.489V347.727C0 360.582 10.421 371.003 23.2759 371.003C36.1308 371.003 46.5517 360.582 46.5517 347.727V51.489C46.5517 48.7622 48.7622 46.5517 51.489 46.5517H281.426C294.281 46.5517 304.702 36.1308 304.702 23.2759C304.702 10.421 294.281 0 281.426 0H51.489Z" />
<path fill-rule="evenodd" clip-rule="evenodd" d="M133.307 78.9969C104.871 78.9969 81.8182 102.049 81.8182 130.486V398.511C81.8182 426.948 104.871 450 133.307 450H335.031C363.468 450 386.52 426.948 386.52 398.511V130.486C386.52 102.049 363.468 78.9969 335.031 78.9969H133.307ZM128.37 130.486C128.37 127.759 130.58 125.549 133.307 125.549H335.031C337.758 125.549 339.969 127.759 339.969 130.486V398.511C339.969 401.238 337.758 403.448 335.031 403.448H133.307C130.58 403.448 128.37 401.238 128.37 398.511V130.486Z" />
</svg>
