<svg width="243" height="458" viewBox="0 0 243 458" fill="none" xmlns="http://www.w3.org/2000/svg">
<path d="M311.674 70.106C288.801 52.9928 257.976 40.0039 230.033 43.9473C229.964 43.9556 229.899 43.9814 229.843 44.0222C229.787 44.063 229.743 44.1174 229.714 44.1804C229.685 44.2433 229.673 44.3126 229.678 44.3816C229.684 44.4507 229.707 44.5172 229.745 44.5748C213.551 50.9868 215.884 50.1532 215.398 50.0433C199.766 46.7398 183.535 47.7071 168.404 52.8439C167.262 53.2287 166.096 53.5974 164.995 54.0851C164.539 54.2567 164.138 54.5467 163.831 54.9254C163.524 55.3041 163.323 55.7579 163.249 56.24C163.053 57.4697 163.13 55.1156 164.849 84.2902C164.849 84.4045 164.893 84.5143 164.972 84.5964C165.052 84.6784 165.16 84.7263 165.274 84.7299C176.48 85.2505 187.447 88.1601 197.442 93.2647C207.759 98.5317 215.418 106.728 225.598 106.455C231.363 106.302 236.886 104.032 242.687 105.198C245.448 105.752 248.096 106.753 250.833 107.394C265.016 110.717 272.223 98.6096 288.17 96.6631C295.795 95.7311 297.957 97.7211 299.534 95.5387C299.991 94.9112 309.144 76.0737 311.836 70.7151C311.892 70.6121 311.906 70.4914 311.876 70.3781C311.846 70.2648 311.773 70.1674 311.674 70.106ZM262.592 73.8249C262.527 74.3926 262.338 74.939 262.038 75.4253C261.739 75.9115 261.336 76.3258 260.859 76.6385C260.382 76.9513 259.842 77.155 259.277 77.2351C258.713 77.3151 258.137 77.2697 257.592 77.1019C254.78 83.4429 251.194 90.132 245.025 93.3609C243.447 94.3865 241.588 94.892 239.709 94.8066C237.83 94.7212 236.025 94.0492 234.546 92.8846C233.098 91.6186 231.725 90.2698 230.433 88.845C227.727 85.8222 226.626 82.93 221.725 72.7349C218.969 73.0074 216.296 70.4815 216.62 66.5336C216.618 65.468 217.027 64.4429 217.763 63.6734C218.18 63.3166 218.701 63.1046 219.248 63.0688C220.735 60.8338 232.729 58.2781 239.977 44.7488C240.029 44.664 240.098 44.5919 240.181 44.5379C240.264 44.4839 240.358 44.4493 240.457 44.4368C240.555 44.4243 240.654 44.4341 240.748 44.4655C240.842 44.4969 240.928 44.5491 240.999 44.6183C253.82 56.3843 251.823 57.9575 257.288 63.2795C258.675 64.4047 259.783 65.8368 260.524 67.4633C260.967 68.203 262.101 67.8045 262.53 69.4075C262.832 70.8625 262.853 72.362 262.592 73.8249Z" fill="#1FB4FF"/>
<path d="M243.179 26.841C241.492 27.4639 240.923 28.1692 240.437 28.2677C240.343 28.2265 240.251 28.183 240.16 28.1372C238.629 27.2902 236.925 26.8054 235.179 26.7201C233.432 26.6347 231.689 26.9511 230.083 27.6448C221.227 31.2241 212.765 43.4756 214.365 54.3096C214.519 55.541 214.798 56.7534 215.199 57.9278C215.606 58.885 215.724 61.3811 216.773 62.5605C215.925 63.3396 215.317 64.3469 215.024 65.4622C214.731 66.5776 214.764 67.754 215.119 68.8511C215.225 70.0606 215.72 71.2029 216.528 72.107C217.337 73.0111 218.416 73.6284 219.604 73.8662C222.415 74.1524 220.441 71.3907 222.559 77.0722C225.342 84.5238 231.619 95.7998 239.598 96.4845C242.757 96.4226 245.782 95.2002 248.101 93.0495C252.573 89.1379 255.958 84.132 257.926 78.5195C258.469 78.6848 259.042 78.7275 259.603 78.6443C260.165 78.5612 260.701 78.3543 261.173 78.0386C262.567 76.9542 263.547 75.4218 263.946 73.6989C264.345 71.9761 264.141 70.168 263.367 68.5786C262.869 67.8916 262.926 68.4824 263.648 67.5618C265.028 65.5037 266.091 63.2497 266.803 60.875C273.27 40.0314 253.742 22.932 243.179 26.841ZM220.166 71.835C218.942 72.0479 217.964 70.919 217.486 69.6549C216.654 67.4496 216.572 64.2871 218.846 63.6688C220.171 63.8772 219.147 62.8307 220.187 68.4984C220.393 69.6175 220.636 70.7281 220.916 71.8304C220.668 71.7815 220.413 71.7831 220.166 71.835ZM256.08 77.4936C253.596 83.5712 250.751 89.0603 245.356 92.5709C243.967 93.5783 242.359 94.2428 240.665 94.5105C233.81 94.9983 227.641 84.391 224.96 78.1302C223.042 73.4791 221.772 68.5851 221.188 63.5864C228.744 62.3635 234.062 56.0294 238.798 50.5746C239.399 49.8876 241.106 47.9067 241.353 47.5976C246.211 58.285 252.901 64.7886 259.135 67.9923C258.384 71.2397 257.362 74.418 256.08 77.4936ZM258.634 76.7401C259.623 74.1967 260.436 71.5884 261.068 68.9335C264.009 69.19 261.913 77.6035 258.634 76.7401Z" fill="#282732"/>
<path d="M228.182 66.9183C228.575 65.0062 231.333 64.9467 232.336 68.2351C232.458 68.6555 232.602 69.0691 232.768 69.474C232.857 69.6231 232.992 69.7391 233.152 69.8044C233.313 69.8697 233.49 69.8807 233.657 69.8358C234.866 69.5083 233.886 67.0878 233.28 66.1077C230.952 62.3612 226.544 64.1635 226.983 66.9206C227.079 67.5275 228.061 67.5 228.182 66.9183Z" fill="#282732"/>
<path d="M240.918 76.6437C240.043 75.8033 239.373 76.275 238.325 75.2926C238.165 75.1465 238.026 74.9793 237.911 74.7957C238.023 74.6193 238.151 74.4522 238.265 74.2781C240.011 71.7072 240.702 68.5617 240.196 65.4937C240.054 64.8296 239.097 65.0243 239.054 65.6471C239.034 68.6596 238.069 71.5894 236.296 74.0217C235.238 76.0827 239.508 78.9658 240.911 77.3376C241.002 77.2454 241.053 77.1215 241.055 76.992C241.056 76.8626 241.007 76.7377 240.918 76.6437Z" fill="#282732"/>
<path d="M239.639 86.4178C240.981 89.6009 246.784 89.2597 246.476 83.0698C246.446 82.5156 246.476 81.9248 245.987 81.5721C245.873 81.5052 245.74 81.4779 245.609 81.4945C245.478 81.511 245.356 81.5705 245.263 81.6637C244.787 82.1813 245.146 82.6851 245.034 84.3133C244.806 87.5742 241.751 87.8284 240.508 85.9163C240.436 85.812 240.328 85.7385 240.204 85.7106C240.081 85.6826 239.952 85.7022 239.843 85.7654C239.733 85.8287 239.651 85.9309 239.614 86.0518C239.576 86.1727 239.585 86.3033 239.639 86.4178Z" fill="#282732"/>
<path d="M158.476 56.3337C137.769 55.5047 114.009 57.5222 97.4364 70.1355C87.0465 78.0429 78.103 90.9745 72.603 102.883C72.2247 103.702 71.9256 104.555 71.7096 105.431C71.6744 105.636 71.7096 105.846 71.8093 106.028C71.9091 106.21 72.0676 106.353 72.2588 106.432C72.4499 106.512 72.6625 106.525 72.8616 106.468C73.0608 106.411 73.2346 106.287 73.3548 106.118C74.8058 103.929 82.4148 85.5403 96.9428 73.4079C114.572 58.6855 137.184 59.0588 158.476 57.2108C158.582 57.1974 158.68 57.1454 158.751 57.0647C158.822 56.9839 158.862 56.8799 158.862 56.7722C158.862 56.6645 158.822 56.5605 158.751 56.4798C158.68 56.399 158.582 56.3471 158.476 56.3337Z" fill="#282732"/>
<path d="M76.4928 112.366C76.7213 112.174 103.042 89.3583 112.1 85.2615C117.466 83.2859 123.109 82.1714 128.822 81.9593C154.601 79.3396 154.763 80.6472 159.374 79.6235C159.478 79.5928 159.569 79.5294 159.633 79.4427C159.698 79.3561 159.733 79.2508 159.733 79.1426C159.733 79.0344 159.698 78.9292 159.633 78.8425C159.569 78.7558 159.478 78.6924 159.374 78.6617C154.395 77.4457 136.033 79.3075 130.869 79.8205C118.295 81.0662 113.542 81.2952 105.54 87.0202C95.0115 94.4677 85.028 102.66 75.6656 111.535C75.1264 112.084 75.9216 112.831 76.4928 112.366Z" fill="#282732"/>
<path d="M97.112 146.897C95.4302 141.831 90.5129 139.003 85.9155 136.243C83.0707 134.537 83.3403 134.844 83.6305 134.737C84.1299 134.56 84.5747 134.255 84.9213 133.854C85.2678 133.452 85.5041 132.967 85.607 132.447C85.8081 130.492 85.378 128.523 84.38 126.832C78.4184 114.028 58.2327 105.535 42.7153 112.975C13.2913 127.095 21.0215 177.853 54.0672 176.742C58.9639 176.577 64.24 175.801 68.0742 172.709C68.7195 172.093 69.2887 171.401 69.7697 170.648C80.8657 172.769 88.8586 172.689 94.0889 162.81C96.7098 157.87 98.8714 152.235 97.112 146.897ZM95.5742 151.314C95.0209 156.28 93.1859 161.015 90.2501 165.054C86.93 169.197 82.2412 170.145 76.9674 169.769C69.4269 169.231 56.6698 165.496 56.311 165.553C53.4361 164.152 50.9918 161.999 49.2356 159.321C47.4794 156.644 46.4765 153.541 46.3324 150.341C45.8937 141.767 49.015 134.327 57.3873 131.716C65.5973 129.158 73.6245 132.245 81.1741 136.367C84.5796 138.176 87.862 140.208 90.9996 142.452C92.467 143.401 93.6611 144.718 94.4636 146.273C95.266 147.827 95.6489 149.565 95.5742 151.314Z" fill="#282732"/>
<path d="M55.3178 151.321C55.7246 150.634 54.9408 149.992 54.2964 150.297C53.5845 150.594 52.9824 151.105 52.5735 151.76C52.0802 152.638 51.8362 153.634 51.868 154.64C51.8998 155.647 52.2063 156.625 52.7541 157.469C52.8944 157.719 53.0825 157.938 53.3076 158.115C53.5326 158.291 53.7903 158.421 54.0656 158.498C54.2661 158.55 54.4769 158.55 54.677 158.496C54.8771 158.441 55.0595 158.335 55.206 158.189C55.3526 158.042 55.4582 157.859 55.5123 157.658C55.5664 157.458 55.5671 157.247 55.5143 157.046C54.8933 156.23 54.5407 155.24 54.5055 154.215C54.4703 153.189 54.7542 152.178 55.3178 151.321Z" fill="#282732"/>
<path d="M60.6209 138.971C60.6764 139.167 60.8008 139.336 60.971 139.448C61.1413 139.559 61.346 139.605 61.5475 139.577C61.7489 139.55 61.9336 139.45 62.0673 139.296C62.201 139.143 62.2749 138.946 62.2753 138.742C62.3056 138.169 62.4544 137.608 62.7125 137.095C62.9705 136.583 63.3321 136.13 63.7742 135.765C64.9899 134.968 65.536 135.25 66.1506 134.711C66.6671 134.253 66.6922 133.828 66.4865 133.509C64.9899 131.199 59.1106 134.734 60.6209 138.971Z" fill="#282732"/>
<path d="M64.5233 157.158C64.0389 156.849 63.7235 157.126 62.8735 156.56C62.5468 156.231 62.4165 155.933 62.9832 155.404C63.2894 155.196 63.3191 155.214 64.0229 155.074C64.1596 155.081 64.2949 155.042 64.4073 154.964C64.5198 154.886 64.6032 154.772 64.6445 154.641C64.6857 154.511 64.6825 154.37 64.6354 154.241C64.5882 154.112 64.4998 154.002 64.3839 153.929C64.1193 153.789 63.8263 153.71 63.527 153.7C63.0934 153.725 62.6716 153.851 62.2949 154.068C61.9181 154.284 61.5968 154.586 61.3563 154.948C61.1947 155.216 61.0875 155.512 61.0406 155.821C60.9937 156.13 61.0082 156.445 61.0831 156.749C61.158 157.052 61.292 157.338 61.4773 157.589C61.6626 157.841 61.8956 158.053 62.1629 158.214C62.7979 158.633 63.5491 158.839 64.3085 158.802C64.4738 158.749 64.6207 158.65 64.732 158.517C64.8433 158.384 64.9144 158.221 64.9369 158.049C64.9594 157.876 64.9325 157.701 64.8593 157.543C64.786 157.385 64.6695 157.252 64.5233 157.158Z" fill="#282732"/>
<path d="M69.7446 144.169C69.867 144.168 69.9863 144.13 70.0877 144.061C70.189 143.993 70.2681 143.895 70.315 143.782C70.3619 143.669 70.3747 143.544 70.3517 143.424C70.3287 143.303 70.2709 143.192 70.1856 143.104C69.2716 142.344 68.8809 141.357 69.5001 140.773C70.4438 140.196 71.7394 140.952 71.9953 139.813C72.0322 139.694 72.0443 139.568 72.0308 139.444C72.0173 139.319 71.9786 139.199 71.9169 139.09C71.8552 138.981 71.772 138.887 71.6723 138.811C71.5726 138.736 71.4586 138.682 71.3372 138.652C70.4772 138.503 69.5919 138.623 68.8032 138.998C68.3293 139.302 67.9563 139.74 67.7317 140.257C67.5072 140.774 67.4412 141.346 67.5421 141.9C67.6431 142.455 67.9064 142.967 68.2987 143.371C68.6909 143.775 69.1943 144.053 69.7446 144.169Z" fill="#282732"/>
<path d="M77.7759 153.293C78.3162 152.458 78.561 151.465 78.4711 150.474C78.3812 149.482 77.9617 148.55 77.2801 147.826C77.1699 147.723 77.0324 147.654 76.8839 147.626C76.7354 147.599 76.5822 147.615 76.4427 147.673C76.3032 147.731 76.1832 147.828 76.0971 147.952C76.0109 148.076 75.9623 148.223 75.9571 148.374C75.9685 149.702 77.1887 150.881 76.2633 152.106C76.0485 152.299 76.0462 152.363 75.7491 152.434C75.1413 152.402 74.9928 152.125 73.5921 151.163C69.6973 148.407 65.1368 146.746 60.3848 146.354C60.2307 146.36 60.0837 146.42 59.9694 146.524C59.8552 146.627 59.781 146.768 59.76 146.921C59.739 147.074 59.7725 147.23 59.8546 147.361C59.9367 147.491 60.0621 147.589 60.2088 147.636C63.3109 148.394 66.3299 149.459 69.2209 150.817C73.311 152.919 74.0194 154.387 75.692 154.371C76.0978 154.36 76.4958 154.257 76.8565 154.07C77.2173 153.883 77.5315 153.618 77.7759 153.293Z" fill="#282732"/>
<path d="M83.4021 146.246C82.9222 146.164 81.3798 146.562 81.3044 147.24C80.8337 151.412 79.5841 155.457 77.621 159.166C77.4901 159.397 77.4543 159.67 77.5213 159.926C77.5884 160.183 77.7529 160.403 77.9798 160.54C79.6807 161.59 81.6835 162.038 83.6683 161.813C85.6531 161.588 87.5055 160.703 88.9295 159.299C93.4561 154.33 90.0925 147.409 83.4021 146.246ZM88.9158 154.804C88.7358 155.769 88.3327 156.679 87.7388 157.46C87.1449 158.241 86.3767 158.872 85.4958 159.302C84.6149 159.732 83.6457 159.949 82.6659 159.937C81.6861 159.924 80.7229 159.681 79.8535 159.228C81.273 156.529 82.1942 153.595 82.5726 150.567C82.6547 149.729 82.6432 148.884 82.5383 148.048C82.8308 148.215 89.2951 149.138 88.9158 154.804Z" fill="#282732"/>
<path d="M155.642 43.3909C159.07 42.9741 167.933 40.1368 177.19 42.5711C178.065 42.9231 179.007 43.0741 179.948 43.013C180.056 43.0091 180.161 42.9742 180.249 42.9123C180.338 42.8505 180.407 42.7644 180.449 42.6643C180.49 42.5642 180.502 42.4543 180.483 42.3476C180.464 42.241 180.414 42.1421 180.341 42.0627C180.097 41.7182 179.74 41.4703 179.333 41.3619C173.506 38.7857 160.784 39.6879 155.327 42.223C155.212 42.2948 155.123 42.4018 155.074 42.5281C155.024 42.6543 155.017 42.7932 155.052 42.9242C155.088 43.0552 155.164 43.1712 155.27 43.2553C155.377 43.3393 155.507 43.3869 155.642 43.3909Z" fill="#282732"/>
<path d="M116.695 191.673C112.492 186.133 103.195 182.428 96.3786 181.006C96.1001 180.937 95.8059 180.98 95.5585 181.126C95.3111 181.271 95.1301 181.508 95.0539 181.785C94.9777 182.062 95.0124 182.358 95.1505 182.61C95.2887 182.861 95.5194 183.049 95.7937 183.133C101.613 184.286 107.131 186.636 111.999 190.033C120.257 196.216 117.641 205.605 108.996 205.399C102.598 205.241 97.4617 199.216 90.152 193.113C90.0099 192.971 89.8173 192.891 89.6165 192.892C89.4158 192.892 89.2233 192.972 89.0815 193.114C88.9397 193.257 88.8601 193.45 88.8604 193.651C88.8606 193.852 88.9405 194.045 89.0826 194.187C90.7296 196.172 92.5429 198.012 94.5027 199.688C97.7871 203.121 101.856 205.702 106.357 207.208C108.268 207.737 110.286 207.734 112.195 207.201C114.104 206.667 115.833 205.623 117.195 204.181C118.514 202.338 119.181 200.107 119.091 197.841C119 195.575 118.157 193.404 116.695 191.673ZM107.865 205.321C107.945 205.321 107.945 205.321 107.865 205.321V205.321Z" fill="#282732"/>
<path d="M127.292 151.369C122.611 149.241 117.469 148.335 112.344 148.736C112.193 148.729 112.042 148.753 111.9 148.806C111.758 148.859 111.629 148.941 111.52 149.045C111.41 149.15 111.323 149.276 111.264 149.415C111.204 149.555 111.174 149.705 111.174 149.857C111.174 150.008 111.204 150.158 111.264 150.298C111.323 150.437 111.41 150.563 111.52 150.668C111.629 150.772 111.758 150.854 111.9 150.907C112.042 150.96 112.193 150.984 112.344 150.977C118.056 150.835 123.899 151.071 128.407 154.598C134.038 159.006 133.542 165.281 130.283 167.298C123.885 171.26 110.696 159.496 108.528 158.12C108.365 158.025 108.174 157.993 107.99 158.029C107.805 158.065 107.64 158.167 107.525 158.316C107.41 158.465 107.353 158.651 107.365 158.839C107.377 159.027 107.456 159.205 107.589 159.338C108.289 160.182 109.089 160.938 109.97 161.589C115.015 165.78 124.114 172.08 130.208 169.652C136.711 167.053 136.759 156.407 127.292 151.369Z" fill="#282732"/>
<path d="M117.151 155.491C116.923 157.323 116.642 159.143 116.493 160.987C116.497 161.197 116.562 161.402 116.68 161.576C116.799 161.75 116.965 161.886 117.159 161.966C117.353 162.047 117.567 162.069 117.773 162.029C117.98 161.99 118.17 161.891 118.321 161.745C119.235 160.744 120.124 159.748 121.022 158.745C121.084 160.668 120.7 162.62 121.516 163.572C121.64 163.717 121.793 163.835 121.964 163.919C122.136 164.003 122.323 164.051 122.513 164.059C122.704 164.068 122.894 164.038 123.073 163.97C123.251 163.902 123.414 163.799 123.552 163.666C124.332 162.664 125.011 161.586 125.578 160.449C125.981 159.849 126.337 159.22 126.645 158.566C126.705 158.349 126.691 158.118 126.606 157.91C126.521 157.701 126.37 157.526 126.176 157.413C125.982 157.3 125.755 157.254 125.532 157.283C125.309 157.311 125.102 157.413 124.943 157.572C124.285 158.464 123.686 159.398 123.149 160.368C123.323 158.848 123.127 157.308 122.578 155.88C122.495 155.736 122.379 155.614 122.241 155.522C122.103 155.43 121.946 155.37 121.782 155.348C121.617 155.326 121.45 155.342 121.293 155.394C121.135 155.447 120.992 155.535 120.874 155.651C120.162 156.439 119.455 157.23 118.753 158.023C118.771 157.178 118.778 156.336 118.799 155.488C118.799 155.38 118.777 155.273 118.736 155.173C118.694 155.073 118.633 154.982 118.557 154.905C118.48 154.828 118.389 154.768 118.289 154.726C118.189 154.685 118.082 154.664 117.974 154.664C117.866 154.664 117.759 154.686 117.659 154.727C117.559 154.769 117.468 154.83 117.392 154.907C117.315 154.983 117.255 155.075 117.214 155.175C117.172 155.275 117.151 155.382 117.151 155.491Z" fill="#282732"/>
<path d="M101.849 191.998C101.847 191.8 101.773 191.609 101.643 191.46C101.512 191.312 101.332 191.215 101.136 191.188C100.938 191.156 100.735 191.198 100.566 191.307C100.397 191.416 100.275 191.584 100.222 191.778C99.8822 193.665 99.6655 195.572 99.5732 197.487C99.5785 197.692 99.6429 197.89 99.7585 198.059C99.8741 198.228 100.036 198.359 100.225 198.437C100.413 198.516 100.62 198.537 100.821 198.5C101.022 198.463 101.208 198.368 101.356 198.227C102.132 197.377 102.907 196.521 103.679 195.667L103.99 199.965C103.994 200.156 104.047 200.342 104.144 200.506C104.241 200.669 104.379 200.805 104.544 200.9C104.708 200.995 104.895 201.046 105.085 201.047C105.275 201.049 105.462 201.001 105.628 200.909C107.422 199.922 108.003 197.868 108.994 196.528C109.417 196.031 109.78 195.781 109.593 195.919C109.813 195.766 109.968 195.535 110.025 195.273C110.083 195.011 110.04 194.736 109.904 194.505C109.769 194.273 109.551 194.101 109.295 194.024C109.038 193.946 108.762 193.969 108.521 194.087C107.411 194.94 106.533 196.061 105.969 197.345L105.654 193.063C105.65 192.85 105.585 192.642 105.465 192.466C105.345 192.289 105.177 192.152 104.98 192.07C104.783 191.988 104.567 191.966 104.358 192.006C104.149 192.045 103.956 192.145 103.803 192.294C103.142 193.031 102.487 193.775 101.833 194.517C101.89 193.672 101.865 192.839 101.849 191.998Z" fill="#282732"/>
<path d="M217.76 107.811C217.812 107.618 217.792 107.413 217.704 107.234C217.617 107.054 217.467 106.913 217.284 106.835C217.1 106.757 216.895 106.749 216.705 106.811C216.516 106.874 216.356 107.003 216.254 107.174C213.414 112.819 211.57 128.998 213.206 131.613C213.26 131.703 213.336 131.777 213.427 131.828C213.518 131.88 213.621 131.907 213.726 131.907C213.83 131.907 213.933 131.88 214.024 131.828C214.115 131.777 214.191 131.703 214.246 131.613C214.353 131.424 214.445 131.227 214.52 131.022C214.565 130.846 214.6 129.378 214.595 129.19C214.484 121.939 215.553 114.718 217.76 107.811Z" fill="#282732"/>
<path d="M229.414 108.546C229.471 107.795 228.297 107.653 228.118 108.37C226.096 116.495 230.86 126.642 229.601 135.341C229.414 136.642 228.948 137.762 229.373 138.451C229.472 138.61 229.628 138.725 229.809 138.773C229.99 138.821 230.182 138.797 230.346 138.708C231.125 138.337 231.365 136.713 231.489 135.863C232.823 126.93 228.621 118.991 229.414 108.546Z" fill="#282732"/>
<path d="M225.088 132.012C225.133 133.319 225.012 134.627 224.73 135.905C224.599 136.385 224.546 136.884 224.572 137.382C224.734 138.637 227.147 139.253 226.443 132.018C226.419 131.856 226.338 131.708 226.214 131.6C226.091 131.493 225.933 131.433 225.769 131.433C225.605 131.432 225.446 131.49 225.322 131.596C225.197 131.702 225.114 131.85 225.088 132.012Z" fill="#282732"/>
<path d="M221.791 132.271C220.819 135.857 220.81 135.706 220.936 136.599C220.977 136.721 221.051 136.83 221.15 136.913C221.25 136.995 221.37 137.048 221.498 137.064C221.626 137.081 221.756 137.061 221.873 137.007C221.991 136.953 222.09 136.867 222.161 136.759C222.572 136.173 222.563 136.054 223.253 132.671C223.297 132.48 223.266 132.279 223.165 132.11C223.065 131.941 222.903 131.818 222.714 131.766C222.525 131.714 222.323 131.738 222.151 131.832C221.979 131.926 221.85 132.083 221.791 132.271Z" fill="#282732"/>
<path d="M217.584 130.933C217.379 130.903 217.169 130.949 216.995 131.063C216.821 131.177 216.695 131.35 216.64 131.551C216.183 134.173 215.923 134.998 216.398 136.117C216.432 136.225 216.497 136.321 216.583 136.394C216.67 136.466 216.775 136.513 216.887 136.527C216.999 136.542 217.113 136.524 217.216 136.477C217.318 136.429 217.405 136.353 217.465 136.257C218.197 135.282 218.165 134.176 218.334 131.782C218.333 131.574 218.256 131.373 218.118 131.217C217.98 131.06 217.791 130.96 217.584 130.933Z" fill="#282732"/>
<path d="M97.486 380.926C95.9048 390.608 95.2879 401.245 100.541 409.523C112.101 427.74 145.944 426.371 159.873 389.579C164.795 376.577 169.47 369.769 170.805 362.851C171.707 358.965 171.112 354.881 169.139 351.417C167.071 348.638 164.419 346.35 161.37 344.714C150.749 337.974 141.826 332.428 129.423 330.413C118.227 328.592 117.084 333.351 112.542 336.495C110.008 338.251 106.912 339.014 104.291 340.617C102.352 341.838 100.727 343.499 99.5457 345.465C98.3645 347.431 97.6606 349.648 97.4906 351.936C97.6313 355.778 98.1247 359.599 98.9644 363.35C99.2954 369.249 98.7978 375.165 97.486 380.926ZM108.294 370.073C109.258 367.696 110.631 365.506 112.35 363.604C118.138 356.684 125.861 350.78 134.809 349.706C143.757 348.632 147.148 354.215 148.885 363.233C150.797 373.181 151.531 383.779 145.537 391.991C142.299 393.713 140.366 395.488 136.61 394.81C133.344 393.879 130.318 392.251 127.737 390.04C116.897 382.4 111.057 382.654 108.463 377.545C107.934 376.374 107.646 375.108 107.617 373.822C107.588 372.536 107.818 371.258 108.294 370.064V370.073Z" fill="#1FB4FF"/>
<path d="M141.507 381.565C140.762 383.094 138.576 383.282 138.144 381.658C137.915 380.834 138.144 379.694 137.403 379.247C137.261 379.166 137.102 379.119 136.939 379.111C136.776 379.103 136.613 379.133 136.463 379.2C136.314 379.267 136.183 379.369 136.08 379.496C135.977 379.624 135.906 379.774 135.872 379.934C135.697 380.758 135.758 381.615 136.048 382.405C136.247 383.182 136.713 383.864 137.364 384.33C138.015 384.797 138.809 385.02 139.607 384.958C140.405 384.897 141.156 384.555 141.728 383.994C142.3 383.433 142.656 382.688 142.734 381.89C142.729 381.747 142.679 381.61 142.59 381.498C142.501 381.386 142.379 381.306 142.241 381.27C142.104 381.233 141.958 381.242 141.826 381.295C141.693 381.349 141.582 381.443 141.507 381.565Z" fill="#282732"/>
<path d="M121.377 373.787C121.217 373.719 121.038 373.712 120.873 373.766C120.708 373.82 120.568 373.933 120.479 374.083C120.375 374.237 120.237 374.364 120.075 374.455C119.914 374.547 119.733 374.599 119.548 374.609C119.363 374.619 119.178 374.586 119.008 374.512C118.837 374.438 118.686 374.326 118.567 374.184C117.703 372.931 118.448 372.473 118.494 370.962C118.519 370.046 117.758 369.794 117.184 370.24C116.886 370.435 116.637 370.696 116.456 371.003C116.275 371.31 116.167 371.655 116.14 372.01C115.576 375.157 118.055 377.183 120.187 376.455C121.494 376.018 122.376 374.186 121.377 373.787Z" fill="#282732"/>
<path d="M137.785 370.721L136.113 369.223C135.555 368.726 134.612 367.662 133.828 368.449C133.665 368.646 133.58 368.896 133.588 369.151C133.596 369.407 133.697 369.651 133.871 369.837C134.017 370.002 134.815 370.664 135.64 371.376C132.892 373.559 130.659 376.322 129.1 379.469C129.023 379.616 129.005 379.787 129.05 379.946C129.095 380.106 129.201 380.242 129.344 380.326C129.487 380.41 129.657 380.435 129.818 380.396C129.979 380.357 130.119 380.257 130.208 380.117C130.734 379.359 131.328 378.66 131.883 377.923C133.492 375.745 135.417 373.821 137.596 372.216C137.719 372.141 137.823 372.038 137.902 371.917C137.98 371.795 138.03 371.658 138.048 371.514C138.067 371.371 138.052 371.225 138.007 371.088C137.961 370.95 137.886 370.825 137.785 370.721Z" fill="#282732"/>
<path d="M131.844 365.225C132.986 364.792 134.202 364.589 135.422 364.629C136.643 364.668 137.843 364.949 138.955 365.454C138.903 365.702 138.941 365.959 139.061 366.181C139.182 366.403 139.377 366.575 139.612 366.666C139.847 366.757 140.106 366.762 140.344 366.678C140.582 366.595 140.783 366.43 140.911 366.212C144.021 359.759 140.043 353.027 135.74 354.785C132.568 356.079 130.674 360.71 130.45 364.174C130.453 364.343 130.494 364.508 130.571 364.659C130.647 364.809 130.757 364.94 130.891 365.041C131.025 365.142 131.181 365.212 131.346 365.244C131.511 365.276 131.682 365.269 131.844 365.225ZM137.371 356.681C139.714 357.27 140.166 361.463 139.531 363.815C137.534 362.593 135.15 362.175 132.859 362.645C133.32 360.373 135.043 356.681 137.371 356.681Z" fill="#282732"/>
<path d="M171.557 351.694C173.834 348.645 175.955 345.483 177.914 342.22C179.07 339.957 180.03 337.097 177.873 335.698C177.345 335.432 176.766 335.281 176.176 335.253C175.586 335.226 174.996 335.322 174.445 335.538C170.456 336.65 166.782 338.683 163.717 341.473C163.458 341.705 163.248 341.987 163.1 342.301C162.951 342.616 162.868 342.957 162.854 343.305C162.855 343.448 162.912 343.584 163.012 343.685C163.113 343.785 163.248 343.842 163.39 343.843C164.185 343.776 164.928 343.421 165.479 342.843C167.483 341.09 169.753 339.667 172.204 338.629C173.475 338.096 174.799 337.696 176.152 337.436C176.774 337.406 176.909 337.69 176.961 338.089C177.231 340.088 173.892 344.359 170.197 350.894C170.092 351.075 170.062 351.29 170.115 351.493C170.167 351.696 170.298 351.869 170.479 351.975C170.659 352.081 170.874 352.111 171.076 352.058C171.278 352.005 171.451 351.874 171.557 351.694Z" fill="#282732"/>
<path d="M135.47 330.321C137.755 314.586 131.585 312.448 128.446 314.88C126.843 316.423 125.802 318.459 125.489 320.664C123.432 328.945 123.462 328.512 123.661 329.222C123.71 329.394 123.803 329.55 123.93 329.675C124.057 329.8 124.215 329.89 124.387 329.936C124.559 329.983 124.741 329.983 124.913 329.938C125.086 329.893 125.244 329.804 125.372 329.68C126.001 329.034 125.829 329.132 127.388 322.878C127.655 320.69 128.489 318.609 129.805 316.842C131.827 315.056 133.413 318.951 133.69 322.533C134.249 329.565 133.265 330.745 134.546 330.912C134.746 330.948 134.953 330.908 135.124 330.798C135.295 330.689 135.419 330.518 135.47 330.321Z" fill="#282732"/>
<path d="M56.1305 319.652C56.1962 319.716 56.2758 319.765 56.3631 319.795C56.4505 319.824 56.5433 319.833 56.6346 319.821C56.726 319.809 56.8134 319.777 56.8904 319.726C56.9673 319.675 57.0317 319.607 57.0788 319.528C57.7506 318.333 57.2433 317.357 57.7643 311.543C58.2149 308.136 58.2188 304.685 57.7757 301.277C57.5862 300.553 57.3441 299.844 57.0513 299.156C56.9889 298.973 56.859 298.82 56.6881 298.73C56.5172 298.639 56.3183 298.617 56.132 298.669C55.9456 298.72 55.7859 298.841 55.6854 299.007C55.5849 299.172 55.5512 299.37 55.5912 299.559C55.6575 299.903 55.9203 302.983 55.9431 303.331C56.3087 309.196 54.3322 317.575 56.1305 319.652Z" fill="#282732"/>
<path d="M55.105 337.717C55.4201 338.836 56.0331 339.846 56.8782 340.642C57.3352 340.976 57.8859 340.518 57.9156 340.044C58.0413 338.001 52.4316 329.989 53.1011 312.903C53.0904 312.707 53.0052 312.523 52.8631 312.388C52.7209 312.253 52.5325 312.178 52.3368 312.178C52.141 312.178 51.9527 312.253 51.8105 312.388C51.6683 312.523 51.5831 312.707 51.5724 312.903C50.6302 321.341 51.8459 329.88 55.105 337.717Z" fill="#282732"/>
<path d="M41.6097 329.047C41.7059 330.195 42.0556 331.306 42.6334 332.302C42.8756 332.668 43.5725 332.679 43.6639 332.164C43.8127 330.163 43.7199 328.152 43.3875 326.174C42.7911 317.105 44.795 309.592 45.9604 301.671C46.0036 301.489 45.975 301.298 45.8804 301.138C45.7858 300.977 45.6328 300.86 45.4535 300.81C45.2742 300.76 45.0827 300.783 44.9193 300.872C44.756 300.961 44.6336 301.11 44.5779 301.288C42.3158 309.25 40.4101 320.856 41.6097 329.047Z" fill="#282732"/>
<path d="M49.5842 334.658C50.2902 336.831 51.1517 336.875 51.3459 336.261C51.9309 334.402 50.3519 333.382 48.8735 318.953C48.8735 318.767 48.7999 318.589 48.6687 318.458C48.5376 318.326 48.3598 318.252 48.1743 318.252C47.9889 318.252 47.811 318.326 47.6799 318.458C47.5488 318.589 47.4751 318.767 47.4751 318.953C47.4368 324.262 48.1468 329.549 49.5842 334.658Z" fill="#282732"/>
<path d="M45.6719 320.101C45.6719 319.943 45.6093 319.791 45.4979 319.68C45.3864 319.568 45.2353 319.505 45.0778 319.505C44.9202 319.505 44.7691 319.568 44.6577 319.68C44.5462 319.791 44.4837 319.943 44.4837 320.101C43.9631 323.884 44.3781 327.737 45.6924 331.322C45.8174 331.883 46.1099 332.394 46.531 332.785C46.6053 332.857 46.699 332.905 46.8004 332.925C46.9019 332.944 47.0067 332.933 47.1021 332.893C47.1974 332.854 47.2792 332.787 47.3373 332.701C47.3953 332.616 47.4272 332.515 47.429 332.412C47.4153 331.038 47.3696 331.94 46.7435 329.334C45.9566 326.322 45.5958 323.214 45.6719 320.101Z" fill="#282732"/>
<path d="M95.2843 377.463C77.1894 368.193 62.4557 358.339 49.141 343.369C39.4919 332.655 32.0116 320.163 27.1159 306.59C23.4599 296.227 15.4807 266.398 14.1028 249.976C18.426 249.614 28.231 248.643 32.9061 247.643C34.1445 247.377 33.8909 245.291 32.6022 245.399C27.7831 245.808 24.7258 246.544 12.7227 247.503C12.3817 247.508 12.0561 247.646 11.815 247.887C11.5739 248.129 11.4364 248.455 11.4316 248.797C12.689 261.171 15.0403 273.409 18.458 285.366C24.2665 307.746 28.8639 323.101 45.0554 342.373C58.5119 358.288 75.5016 370.823 94.6628 378.972C95.5128 379.32 96.1115 377.886 95.2843 377.463Z" fill="#282732"/>
<path d="M99.4659 340.015C96.813 337.857 88.2899 333.868 81.147 328.221C69.1805 318.763 64.7521 308.655 64.5031 293.667C64.601 282.576 65.9183 271.528 68.431 260.726C70.0031 253.776 70.5698 253.361 69.9528 252.214C69.3836 251.439 68.5333 250.92 67.5855 250.769C66.6715 250.464 65.7873 250.173 64.8573 249.947C64.5916 249.876 64.3095 249.904 64.0628 250.025C63.816 250.147 63.6211 250.353 63.5137 250.606C63.4037 250.859 63.3895 251.143 63.4737 251.405C63.5578 251.667 63.7345 251.89 63.9707 252.031C65.3417 252.64 66.587 253.05 67.6701 253.423C64.1451 266.146 62.2757 279.273 62.1084 292.477C62.1907 317.706 74.3423 329.08 97.3362 340.796C97.7789 340.998 98.2375 341.163 98.7072 341.29C99.4202 341.503 100.062 340.5 99.4659 340.015Z" fill="#282732"/>
<path d="M23.9926 245.488C23.2564 234.003 25.558 222.527 30.6648 212.219C30.8818 211.791 31.2817 210.797 31.1538 211.108C31.9489 209.263 30.3152 208.454 29.2664 210.076C27.0577 214.1 25.3385 218.375 24.1457 222.81C22.0888 230.179 21.4582 237.875 22.288 245.481C22.2871 245.708 22.376 245.925 22.5352 246.086C22.6944 246.247 22.9108 246.338 23.1368 246.339C23.3629 246.34 23.58 246.251 23.7405 246.091C23.901 245.932 23.9917 245.715 23.9926 245.488Z" fill="#282732"/>
<path d="M30.7578 225.693C30.7597 225.869 30.8247 226.038 30.941 226.169C31.0573 226.301 31.217 226.385 31.3908 226.408C31.5641 226.434 31.7409 226.395 31.8878 226.3C32.0347 226.204 32.1416 226.057 32.1882 225.888C33.7877 214.646 37.51 210.053 37.3432 208.532C37.3399 208.434 37.3115 208.338 37.2609 208.254C37.2103 208.17 37.139 208.1 37.0538 208.051C36.9687 208.002 36.8724 207.976 36.7743 207.975C36.6762 207.974 36.5794 207.998 36.4932 208.044C34.9279 208.782 31.0754 217.255 30.7578 225.693Z" fill="#282732"/>
<path d="M159.563 53.3433C159.042 48.9109 157.598 44.6374 155.327 40.7987C155.206 40.5975 155.023 40.441 154.806 40.3522C154.589 40.2635 154.349 40.2474 154.123 40.3063C141.003 43.566 128.731 49.6035 118.134 58.0126C117.72 58.363 118.262 59.0637 118.712 58.766C120.334 57.7012 121.943 56.792 122.05 56.7187C127.467 53.1173 133.204 50.0241 139.188 47.4786C139.476 47.8221 140.301 48.4862 142.06 50.1716C143.751 51.7688 145.149 53.6507 146.191 55.7318C146.314 55.9305 146.504 56.0787 146.727 56.1497C146.949 56.2207 147.19 56.2098 147.405 56.119C147.62 56.0282 147.796 55.8634 147.9 55.6543C148.005 55.4452 148.032 55.2055 147.976 54.9783C146.573 50.7991 142.949 46.5214 141.379 46.5832C145.447 44.9578 149.623 43.6202 153.878 42.5803C155.723 46.3906 157.087 50.416 157.941 54.5639C158.026 54.7024 158.149 54.8133 158.295 54.8832C158.442 54.9532 158.605 54.9792 158.766 54.9582C158.927 54.9371 159.078 54.8699 159.202 54.7646C159.325 54.6592 159.416 54.5204 159.463 54.3646C159.553 54.0323 159.587 53.687 159.563 53.3433Z" fill="#1FB4FF"/>
<path d="M133.736 83.0032C130.928 89.5743 128.355 96.2432 126.019 102.997C122.313 99.4202 113.191 92.0693 108.237 91.0343C107.974 90.9271 107.691 90.8746 107.406 90.8797C107.121 90.8848 106.841 90.9475 106.581 91.064C106.379 91.189 106.233 91.3867 106.173 91.6164C106.113 91.846 106.143 92.0901 106.256 92.2983C106.585 93.0632 109.286 94.1761 110.171 94.6204C117.567 98.3256 124.388 104.58 125.423 104.719C122.512 113.243 120.656 119.556 119.098 124.915C111.686 117.186 110.81 115.837 109.09 114.321C104.839 110.469 100.207 107.062 95.2655 104.154C94.1211 103.376 92.817 102.866 91.4496 102.661C91.281 102.665 91.1162 102.712 90.9713 102.799C90.8263 102.885 90.7061 103.008 90.6222 103.154C90.5384 103.301 90.4937 103.467 90.4925 103.636C90.4913 103.805 90.5337 103.971 90.6156 104.119C91.5296 105.631 95.59 106.506 104.2 113.508C109.273 117.642 114.058 122.12 118.52 126.909C117.054 132.273 115.299 137.553 113.264 142.726C111.208 141.009 108.436 138.646 107.134 137.613C103.396 134.652 88.1066 123.66 85.6754 122.632C84.7614 122.247 84.4781 122.02 83.804 122.153C83.6562 122.196 83.531 122.296 83.4551 122.43C83.3791 122.564 83.3584 122.723 83.3973 122.872C83.66 124.106 87.348 126.408 88.6276 127.271C105.452 138.618 108.544 141.378 112.563 144.389C110.976 148.085 109.245 151.716 107.374 155.276C107.381 155.126 107.346 154.978 107.274 154.848C107.202 154.717 107.095 154.609 106.965 154.536C102.34 152.141 102.285 152.04 101.207 152.246C101.094 152.279 100.991 152.337 100.904 152.415C100.817 152.494 100.749 152.591 100.705 152.7C100.661 152.808 100.642 152.925 100.65 153.042C100.658 153.159 100.692 153.273 100.75 153.375C101.282 154.261 101.392 154.247 106.32 156.068C106.44 156.107 106.567 156.115 106.69 156.093C106.813 156.07 106.929 156.017 107.026 155.937C105.045 159.716 99.0289 170.77 98.0532 172.551C98.0014 172.435 97.9268 172.331 97.8337 172.244C97.7407 172.158 97.6311 172.091 97.5117 172.048C92.9943 170.156 93.6272 170.374 92.4024 170.2C92.1953 170.134 91.9712 170.149 91.7742 170.24C91.5772 170.332 91.4215 170.494 91.3376 170.695C91.2537 170.896 91.2478 171.121 91.3209 171.326C91.3941 171.53 91.541 171.701 91.7329 171.803C92.9006 172.49 92.4184 172.309 97.0776 173.648C97.2044 173.679 97.3368 173.679 97.4637 173.648C94.7217 178.712 91.9797 183.798 89.3063 188.913C80.605 183.99 86.5003 186.427 67.4868 179.119C66.6373 178.756 65.707 178.625 64.7905 178.739C64.6775 178.774 64.5735 178.833 64.4862 178.913C64.3988 178.992 64.3303 179.091 64.2854 179.2C64.2406 179.31 64.2206 179.428 64.227 179.546C64.2333 179.664 64.2658 179.78 64.3221 179.884C64.8225 180.768 66.2872 181.54 80.934 186.791C82.1748 187.249 86.0958 189.383 88.4745 190.505C86.2032 194.861 83.9853 199.239 81.8206 203.64C77.0632 202.099 66.8744 199.491 63.3121 198.474C49.1451 194.423 48.4048 193.764 43.8233 192.381C44.6825 188.717 45.5896 185.053 46.4968 181.389C46.5556 181.126 46.5115 180.851 46.3736 180.621C46.2356 180.39 46.0145 180.222 45.7559 180.15C45.4974 180.079 45.2213 180.11 44.9848 180.236C44.7484 180.363 44.5698 180.577 44.486 180.832C42.0967 188.457 40.2414 196.24 38.9334 204.124C33.1519 236.574 34.2465 269.88 42.1461 301.879C42.2368 302.191 42.445 302.454 42.7267 302.614C43.0083 302.774 43.3411 302.818 43.6542 302.736L58.2988 298.517C58.5545 298.442 58.7795 298.287 58.941 298.074C59.1025 297.862 59.1921 297.603 59.1968 297.336C58.0018 240.67 92.9006 189.671 111.311 152.725C122.174 130.921 120.844 118.833 135.443 83.6948C135.833 82.7582 134.149 82.0391 133.736 83.0032ZM44.2118 300.038C42.7128 293.872 41.4675 287.651 40.4758 281.377C43.1241 281.475 42.8614 281.336 52.4172 280.042C54.1684 279.862 55.8902 279.464 57.5425 278.855C56.9121 284.693 56.6412 290.563 56.7313 296.434L44.2118 300.038ZM57.7596 276.939C56.4251 277.218 53.6466 277.729 52.2047 277.855C48.2077 278.525 44.1701 278.924 40.1194 279.048C39.1444 272.445 38.4551 265.804 38.0514 259.125C38.3943 259.257 38.7484 259.357 39.1094 259.425C45.2576 259.933 51.4335 260.013 57.5927 259.665C57.7688 259.611 57.9227 259.501 58.0321 259.352C58.1414 259.203 58.2004 259.023 58.2004 258.839C58.2004 258.654 58.1414 258.474 58.0321 258.325C57.9227 258.176 57.7688 258.067 57.5927 258.012C56.2332 257.648 42.6466 257.311 40.4552 257.13C39.5601 257.035 38.6918 256.766 37.8983 256.34C37.551 249.121 37.5442 241.879 37.8778 234.615C41.0882 237.713 57.4122 240.445 60.9837 240.855C62.0102 241.055 63.065 241.061 64.0936 240.871C64.2671 240.82 64.4222 240.72 64.5401 240.582C64.6579 240.444 64.7335 240.276 64.7576 240.096C64.7818 239.916 64.7535 239.733 64.6762 239.569C64.5989 239.405 64.4759 239.267 64.3221 239.172C63.0219 238.485 60.4376 238.508 53.9573 237.134C50.1402 236.352 46.3682 235.362 42.658 234.171C40.9625 233.564 39.0683 232.11 38.0263 231.945C38.3553 226.25 38.9007 220.559 39.6624 214.871C40.0053 215.034 40.3579 215.176 40.718 215.297C49.5907 218.37 58.3879 221.48 68.5013 222.327C68.7336 222.323 68.9566 222.235 69.13 222.08C69.3033 221.925 69.4156 221.713 69.4462 221.482C69.4769 221.252 69.424 221.017 69.2972 220.822C69.1704 220.627 68.978 220.484 68.755 220.419C60.6272 218.42 56.8524 217.882 48.0346 215.106C46.1815 214.525 42.281 212.899 40.0371 212.267C40.8856 206.449 41.9618 200.647 43.2658 194.863C52.92 198.406 62.8033 201.289 72.8474 203.489C73.9008 203.691 79.675 205.335 80.9409 205.472C69.8221 228.393 60.7483 252.033 57.7596 276.939Z" fill="#1FB4FF"/>
<path d="M428.666 193.484C433.752 190.125 440.337 183.55 437.577 178.141C438.484 176.162 438.965 174.013 438.987 171.835C439.01 169.657 438.574 167.498 437.707 165.5C436.409 161.121 434.213 157.061 431.261 153.579C428.875 151.072 425.924 149.177 422.655 148.051C419.387 146.924 415.896 146.601 412.476 147.107C411.156 147.394 409.961 148.093 409.064 149.105C408.167 150.117 407.614 151.389 407.486 152.736C407.337 154.028 407.292 152.317 398.508 155.757C398.026 152.23 392.828 151.825 389.476 154.076C386.599 156.008 385.056 159.514 387.511 161.04C387.739 161.04 379.056 165.723 375.72 168.205C368.28 173.754 368.71 180.358 372.219 188.852C375.453 196.674 378.451 202.672 386.971 202.706C391.871 202.417 396.689 201.311 401.225 199.434C401.454 199.447 401.643 199.736 402.05 200.121C403.732 201.609 405.926 202.383 408.167 202.278C410.409 202.173 412.521 201.198 414.058 199.56C417.156 199.573 424 196.246 426.57 194.769C434.968 211.097 442.522 229 443.086 247.604C443.405 264.881 441.47 282.125 437.333 298.9C434.64 308.563 430.885 317.897 426.136 326.73C420.648 325.683 415.279 324.08 410.114 321.946C415.995 309.173 423.595 287.264 420.554 273.563C415.819 252.305 368.778 224.631 363.996 158.163C363.665 149.05 362.327 140.001 360.006 131.183C349.714 97.0089 334.752 88.7397 313.982 64.8641C317.067 59.7652 321.142 55.3389 325.966 51.8478C361.327 74.3264 382.938 110.355 401.543 147.982C402.071 149.051 403.627 148.115 403.142 147.05C385.447 109.123 361.807 71.3174 326.618 49.07C326.413 48.9475 326.179 48.8829 325.941 48.8829C325.703 48.8829 325.469 48.9475 325.265 49.07C324.723 49.4456 324.189 49.8349 323.665 50.231C323.59 49.7593 323.408 49.3112 323.133 48.9212C319.045 41.6046 310.565 35.0346 303.468 30.9355C302.764 30.5302 302.122 31.5378 302.668 31.9751C309.473 37.4299 316.632 41.5313 321.303 49.6082C321.597 50.1211 321.94 50.9363 322.466 51.1608C318.667 54.208 315.359 57.8244 312.661 61.8826C311.176 61.3673 311.226 61.5093 309.69 60.923C301.693 57.8865 299.531 52.6264 296.159 49.9173C294.543 48.6189 291.646 46.9953 289.904 48.1082C289.79 48.1783 289.695 48.2768 289.629 48.3943C289.563 48.5118 289.528 48.6444 289.528 48.7792C289.528 48.914 289.563 49.0465 289.629 49.164C289.695 49.2815 289.79 49.3801 289.904 49.4501C291.445 50.3341 292.126 49.7524 294.358 51.4104C297.916 54.0553 300.372 60.2338 310.184 63.2817C310.641 63.4214 311.084 63.5611 311.543 63.6596C311.137 64.3466 310.575 65.045 311.365 65.961C330.881 88.5817 345.122 97.0203 355.116 124.864C361.167 141.719 360.305 148.028 362.22 170.161C357.703 171.846 352.954 173.907 349.979 177.869C349.059 178.845 348.559 180.144 348.587 181.487C348.615 182.829 349.168 184.106 350.128 185.043C352.193 186.261 354.618 186.718 356.983 186.333C359.422 186.394 361.853 186.039 364.174 185.284C365.295 191.304 367.378 197.104 370.343 202.459C366.269 204.432 362.512 207.005 359.197 210.091C356.048 213.565 358.235 217.303 361.843 218.189C367.298 218.809 372.817 217.866 377.758 215.468C385.614 228.157 401.214 248.886 404.982 253.482C403.839 254.822 400.853 268.754 386.549 284.626C378.503 293.586 368.765 300.858 357.897 306.022C353.098 308.282 348.071 309.862 343.138 311.79C342.592 310.043 339.133 300.196 338.662 298.966C337.805 296.724 336.9 296.292 334.711 295.302C324.844 290.876 325.306 290.933 324.657 291.203C323.729 291.595 324.241 291.872 322.434 297.972C320.795 303.498 319.95 304.183 320.869 305.646C321.152 306.104 330.989 317.634 331.428 318.129C324.657 323.687 324.687 329.389 321.316 334.638C305.692 321.15 310.504 320.176 304.57 320.211L294.701 320.266C294.386 320.272 294.087 320.4 293.864 320.623C293.642 320.846 293.514 321.146 293.508 321.461C293.494 321.69 292.704 334.539 292.715 334.844C292.804 336.905 293.501 336.66 305.607 344.37C297.365 350.702 297.518 361.101 290.946 372.168C287.549 377.893 285.053 379.725 281.409 384.065C281.267 383.641 279.773 378.846 278.87 375.773C278.779 375.451 278.566 375.178 278.276 375.013C277.986 374.848 277.643 374.805 277.321 374.891C263.581 380.368 249.16 383.942 234.457 385.515C213.206 387.768 198.354 385.54 176.322 369.572C175.543 369.006 174.597 368.621 173.845 368.03C173.667 367.852 173.426 367.752 173.175 367.752C172.924 367.752 172.683 367.852 172.506 368.03C172.328 368.208 172.228 368.45 172.228 368.701C172.228 368.953 172.328 369.194 172.506 369.372C173.753 370.621 175.104 371.762 176.543 372.782C196.651 387.28 212.962 389.884 231.466 388.26C247.005 386.901 262.277 383.368 276.839 377.765C277.73 380.797 278.652 383.82 279.604 386.834C259.866 404.428 237.103 406.003 213.736 413.116C212.854 413.348 211.987 413.635 211.141 413.977C209.219 414.843 209.6 417.139 209.687 418.914C191.089 417.742 173.063 412.007 157.196 402.213C156.223 401.604 155.441 403.067 156.317 403.72C167.97 412.399 185.565 419.661 209.767 421.621L209.941 427.845C209.968 428.818 209.813 429.888 210.601 430.593C211.143 431.067 211.744 431.079 213.752 431.28C227.723 432.679 241.876 430.442 255.741 427.488C285.012 421.252 312.22 414.623 339.665 383.291C341.461 381.23 341.472 381.104 341.824 380.822C341.877 381.441 342.441 381.912 343.524 381.493C342.871 381.747 346.442 379.604 360.497 380.742C363.124 380.966 365.708 381.541 368.182 382.453C368.344 382.548 368.537 382.575 368.719 382.528C368.901 382.48 369.057 382.362 369.152 382.2C369.247 382.037 369.274 381.844 369.226 381.661C369.179 381.479 369.061 381.323 368.899 381.228C365.831 379.342 362.305 378.338 358.706 378.326C355.925 378.109 350.071 378.223 347.436 378.326C345.786 378.388 346.696 378.532 346.205 377.868C342.092 372.29 333.235 358.632 331.645 351.952C329.492 342.898 336.443 337.296 347.023 341.466C356.243 345.584 364.689 351.26 371.991 358.245C372.196 358.44 372.411 358.623 372.628 358.804C369.95 366.043 367.974 373.858 370.163 381.228C370.21 381.394 370.316 381.537 370.46 381.632C370.604 381.727 370.778 381.766 370.949 381.743C371.121 381.723 371.28 381.64 371.395 381.509C371.51 381.379 371.573 381.211 371.573 381.038C369.797 367.195 377.137 355.818 377.146 352.839C397.711 332.863 411.211 305.266 418.52 277.985C419.64 289.96 412.687 310.338 407.198 321.953C407.029 322.262 406.984 322.625 407.074 322.966C407.163 323.307 407.381 323.6 407.68 323.785C410.799 325.159 409.657 324.326 409.28 325.036C407.531 328.989 405.547 332.834 403.339 336.55C401.849 338.904 401.607 338.748 401.808 340.044C401.863 340.402 402.244 340.523 402.646 340.468C403.636 340.333 404.159 339.282 404.982 338.004C407.53 334.207 409.458 330.027 410.694 325.622C410.719 325.515 410.722 325.405 410.703 325.297C410.684 325.189 410.644 325.086 410.584 324.994C415.322 326.864 420.222 328.289 425.222 329.249C424.557 329.826 424.63 332.867 424.441 334.667C423.737 341.393 420.725 348.268 418.237 354.659C417.917 355.479 419.258 356.033 419.651 355.257C423.198 348.208 426.52 340.415 426.794 332.554C426.825 331.494 426.646 330.438 426.266 329.448L426.522 329.499C426.804 329.569 427.101 329.548 427.37 329.438C427.639 329.328 427.866 329.135 428.019 328.887C441.501 303.189 445.184 279.089 445.577 250.592C445.837 231.114 437.577 210.797 428.666 193.484ZM396.66 156.178C396.66 156.221 396.683 156.269 396.66 156.178V156.178ZM388.511 158.901C388.13 157.953 390.216 156.04 391.45 155.429C393.049 154.644 396.191 154.415 396.639 156.134C396.927 156.764 394.759 157.05 389.556 159.917C389.48 159.482 388.708 159.402 388.511 158.91V158.901ZM405.21 199.555C403.341 198.742 402.925 197.281 401.342 197.194C400.048 197.123 399.589 197.833 395.572 199.026C391.039 200.373 384.974 201.513 381.076 198.822C379.908 197.97 378.902 196.916 378.105 195.708C375.582 191.575 373.659 187.102 372.393 182.426C370.247 172.938 376.277 170.08 384.417 165.233C391.535 160.625 399.307 157.123 407.47 154.845C408.085 164.294 414.247 174.75 418.76 182.343C419.128 182.987 419.548 183.6 420.015 184.175C417.036 185.602 414.33 187.54 412.017 189.9C411.886 190.038 411.786 190.203 411.727 190.384C411.667 190.565 411.649 190.757 411.673 190.946C411.697 191.135 411.763 191.317 411.866 191.477C411.969 191.637 412.107 191.772 412.269 191.872C415.92 195.536 411.56 201.857 405.21 199.564V199.555ZM322.806 304.371C322.806 304.419 322.806 304.533 322.806 304.371C322.683 304.128 324.285 300.757 325.898 293.85C335.723 298.162 335.86 297.911 336.528 299.443C337.012 300.775 340.812 311.181 341.351 312.496C338.526 313.62 335.825 315.036 333.292 316.721C332.14 315.333 323.023 304.716 322.806 304.38V304.371ZM295.119 334.899C295.064 334.578 295.251 331.97 295.804 322.649C306.891 322.588 306 322.553 306.43 322.702C307.25 323.16 312.206 330.859 320.206 336.124C317.071 339.788 312.023 340.486 307.853 342.863C306.864 342.256 294.868 334.908 295.119 334.908V334.899Z" fill="#282732"/>
<path d="M206.563 428.393C202.761 429.13 198.868 429.273 195.022 428.816C192.335 428.471 189.699 427.807 187.168 426.838C180.039 424.136 177.114 420.261 175.252 419.54C175.128 419.506 174.997 419.506 174.873 419.54C174.749 419.573 174.636 419.638 174.545 419.729C174.454 419.82 174.389 419.934 174.356 420.058C174.323 420.182 174.323 420.313 174.356 420.437C174.469 420.761 174.638 421.062 174.856 421.326C180.149 427.884 193.552 432.76 203.163 430.639C204.42 430.362 205.677 430.042 206.91 429.659C207.072 429.608 207.207 429.495 207.287 429.346C207.368 429.197 207.388 429.023 207.343 428.859C207.298 428.695 207.192 428.556 207.047 428.469C206.901 428.382 206.728 428.355 206.563 428.393Z" fill="#282732"/>
<path d="M186.478 422.629C187.163 422.858 187.657 421.74 186.978 421.436C178.33 417.543 176.545 414.458 175.336 415.214C174.879 415.505 175.023 416.178 175.336 416.524C178.625 419.256 182.408 421.329 186.478 422.629Z" fill="#282732"/>
<path d="M268.03 47.6455C267.941 47.4075 267.764 47.213 267.536 47.1028C267.308 46.9927 267.046 46.9754 266.805 47.0547C265.576 47.4486 265.036 49.8462 261.054 51.6347C258.41 52.7688 255.547 53.2985 252.673 53.1852C249.799 53.0719 246.986 52.3185 244.439 50.9798C246.911 51.284 249.411 50.7086 251.502 49.3539C256.842 45.944 259.456 40.1526 260.985 34.0475C261.045 33.8702 261.068 33.6826 261.053 33.496C261.038 33.3095 260.985 33.128 260.898 32.9627C260.81 32.7973 260.69 32.6517 260.544 32.5346C260.399 32.4175 260.231 32.3315 260.051 32.2818C259.87 32.2321 259.682 32.2198 259.497 32.2457C259.312 32.2715 259.135 32.335 258.975 32.4321C258.815 32.5292 258.677 32.6581 258.569 32.8106C258.461 32.9632 258.385 33.1363 258.346 33.3193C257.906 35.0084 257.351 36.6656 256.687 38.2794C255.579 41.3535 253.646 44.0613 251.1 46.1043C245.132 50.5905 241.366 46.4204 239.94 47.689C239.202 47.7898 238.944 47.9363 237.84 48.0577C236.575 48.2151 235.291 48.1005 234.073 47.7214C232.856 47.3423 231.733 46.7075 230.78 45.8593C229.929 45.2945 229.198 44.5687 228.625 43.7227C227.071 41.4053 223.701 35.1192 223.582 32.4743C223.582 32.3281 223.553 32.1834 223.497 32.0484C223.442 31.9133 223.36 31.7906 223.257 31.6873C223.153 31.584 223.031 31.502 222.896 31.446C222.762 31.3901 222.617 31.3613 222.471 31.3613C222.326 31.3613 222.181 31.3901 222.046 31.446C221.912 31.502 221.789 31.584 221.686 31.6873C221.583 31.7906 221.501 31.9133 221.445 32.0484C221.39 32.1834 221.361 32.3281 221.361 32.4743C222.072 36.0601 223.405 39.493 225.3 42.6167C226.279 44.8313 227.886 46.7089 229.92 48.0165C231.849 49.5059 234.204 50.3344 236.638 50.3798C238.619 50.3798 239.026 49.9447 238.731 50.2309C237.893 51.1157 236.87 51.8038 235.736 52.2461C229.498 54.598 219.499 51.1927 214.954 43.0174C214.879 42.8901 214.779 42.7788 214.661 42.6899C214.544 42.601 214.409 42.5362 214.266 42.4993C214.123 42.4625 213.975 42.4541 213.829 42.4749C213.682 42.4956 213.542 42.5449 213.415 42.6201C213.288 42.6953 213.177 42.7948 213.088 42.913C212.999 43.0312 212.935 43.1658 212.898 43.309C212.861 43.4522 212.853 43.6013 212.873 43.7477C212.894 43.8942 212.943 44.0351 213.018 44.1624C219.889 56.6681 236.732 58.2917 240.505 50.8401C241.842 52.3521 243.527 53.5133 245.415 54.2224C255.51 58.4841 265.626 53.8285 267.614 49.7248C267.827 49.4281 267.975 49.089 268.047 48.7304C268.118 48.3717 268.113 48.0018 268.03 47.6455Z" fill="#1FB4FF"/>
<path d="M241.77 59.8717C241.689 59.5892 241.521 59.3395 241.29 59.158C241.059 58.9766 240.777 58.8726 240.484 58.861C240.19 58.8493 239.901 58.9305 239.657 59.093C239.412 59.2556 239.225 59.4912 239.122 59.7664C239.032 60.0695 239.041 60.3933 239.148 60.6907C239.255 60.9881 239.454 61.2435 239.716 61.4198C239.953 61.5528 240.224 61.6139 240.496 61.5954C240.768 61.577 241.028 61.4799 241.246 61.3159C241.463 61.152 241.629 60.9282 241.722 60.6718C241.815 60.4154 241.831 60.1375 241.77 59.8717Z" fill="#1FB4FF"/>
</svg>
