<svg width="332" height="36" viewBox="0 0 332 36" fill="none" xmlns="http://www.w3.org/2000/svg">
<path d="M25.2354 1.16084C25.3936 0.481146 26.0011 0 26.7011 0H41.124C42.0808 0 42.7946 0.878523 42.5959 1.81154L39.148 18H21.3146L25.2354 1.16084Z" fill="white"/>
<path d="M17.3939 34.8392C17.2356 35.5189 16.6281 36 15.9282 36H1.50523C0.54845 36 -0.165338 35.1215 0.0333759 34.1885L3.22809 19.1885C3.37567 18.4955 3.98937 18 4.69994 18H21.3146L17.3939 34.8392Z" fill="white"/>
<path d="M39.1463 18H54.7647C55.7215 18 56.4352 18.8785 56.2365 19.8115L53.0418 34.8115C52.8942 35.5045 52.2805 36 51.57 36H36.8492C35.8808 36 35.1645 35.1013 35.3835 34.1608L39.1463 18Z" fill="white"/>
<path d="M328.667 6.76154C327.71 6.76154 326.907 6.43846 326.259 5.79231C325.611 5.14615 325.287 4.34616 325.287 3.39231C325.287 2.43846 325.611 1.63846 326.259 0.992309C326.907 0.346154 327.71 0.023077 328.667 0.023077C329.593 0.023077 330.38 0.346154 331.028 0.992309C331.676 1.63846 332 2.43846 332 3.39231C332 4.34616 331.676 5.14615 331.028 5.79231C330.38 6.43846 329.593 6.76154 328.667 6.76154ZM331.259 10.1308V35.5615H325.981V10.1308H331.259Z" fill="white"/>
<path d="M292.475 22.7308C292.475 20.1769 292.999 17.9154 294.049 15.9462C295.129 13.9769 296.58 12.4538 298.401 11.3769C300.253 10.2692 302.29 9.71538 304.512 9.71538C306.518 9.71538 308.262 10.1154 309.744 10.9154C311.256 11.6846 312.46 12.6538 313.355 13.8231V10.1308H318.679V35.5615H313.355V31.7769C312.46 32.9769 311.241 33.9769 309.697 34.7769C308.154 35.5769 306.395 35.9769 304.419 35.9769C302.228 35.9769 300.222 35.4231 298.401 34.3154C296.58 33.1769 295.129 31.6077 294.049 29.6077C292.999 27.5769 292.475 25.2846 292.475 22.7308ZM313.355 22.8231C313.355 21.0692 312.984 19.5462 312.244 18.2538C311.534 16.9615 310.592 15.9769 309.419 15.3C308.247 14.6231 306.981 14.2846 305.623 14.2846C304.265 14.2846 303 14.6231 301.827 15.3C300.654 15.9462 299.697 16.9154 298.956 18.2077C298.246 19.4692 297.891 20.9769 297.891 22.7308C297.891 24.4846 298.246 26.0231 298.956 27.3462C299.697 28.6692 300.654 29.6846 301.827 30.3923C303.03 31.0692 304.296 31.4077 305.623 31.4077C306.981 31.4077 308.247 31.0692 309.419 30.3923C310.592 29.7154 311.534 28.7308 312.244 27.4385C312.984 26.1154 313.355 24.5769 313.355 22.8231Z" fill="white"/>
<path d="M284.825 35.8846C283.869 35.8846 283.066 35.5615 282.418 34.9154C281.77 34.2692 281.446 33.4692 281.446 32.5154C281.446 31.5615 281.77 30.7615 282.418 30.1154C283.066 29.4692 283.869 29.1461 284.825 29.1461C285.751 29.1461 286.538 29.4692 287.187 30.1154C287.835 30.7615 288.159 31.5615 288.159 32.5154C288.159 33.4692 287.835 34.2692 287.187 34.9154C286.538 35.5615 285.751 35.8846 284.825 35.8846Z" fill="white"/>
<path d="M277.132 22.2231C277.132 23.1769 277.07 24.0385 276.947 24.8077H257.456C257.61 26.8385 258.366 28.4692 259.724 29.7C261.082 30.9308 262.749 31.5462 264.724 31.5462C267.564 31.5462 269.57 30.3615 270.743 27.9923H276.438C275.666 30.3308 274.262 32.2538 272.225 33.7615C270.218 35.2385 267.718 35.9769 264.724 35.9769C262.286 35.9769 260.095 35.4385 258.15 34.3615C256.237 33.2538 254.724 31.7154 253.613 29.7462C252.533 27.7462 251.993 25.4385 251.993 22.8231C251.993 20.2077 252.517 17.9154 253.567 15.9462C254.647 13.9462 256.144 12.4077 258.058 11.3308C260.002 10.2538 262.224 9.71538 264.724 9.71538C267.132 9.71538 269.277 10.2385 271.16 11.2846C273.042 12.3308 274.509 13.8077 275.558 15.7154C276.607 17.5923 277.132 19.7615 277.132 22.2231ZM271.623 20.5615C271.592 18.6231 270.897 17.0692 269.539 15.9C268.181 14.7308 266.499 14.1462 264.493 14.1462C262.672 14.1462 261.113 14.7308 259.817 15.9C258.521 17.0385 257.749 18.5923 257.502 20.5615H271.623Z" fill="white"/>
<path d="M223.862 22.8231C223.862 20.2077 224.386 17.9154 225.436 15.9462C226.516 13.9462 227.998 12.4077 229.88 11.3308C231.763 10.2538 233.924 9.71538 236.362 9.71538C239.448 9.71538 241.995 10.4538 244.001 11.9308C246.038 13.3769 247.412 15.4538 248.121 18.1615H242.427C241.964 16.9 241.223 15.9154 240.205 15.2077C239.186 14.5 237.905 14.1462 236.362 14.1462C234.201 14.1462 232.473 14.9154 231.177 16.4538C229.911 17.9615 229.279 20.0846 229.279 22.8231C229.279 25.5615 229.911 27.7 231.177 29.2385C232.473 30.7769 234.201 31.5462 236.362 31.5462C239.418 31.5462 241.439 30.2077 242.427 27.5308H248.121C247.381 30.1154 245.992 32.1769 243.955 33.7154C241.918 35.2231 239.387 35.9769 236.362 35.9769C233.924 35.9769 231.763 35.4385 229.88 34.3615C227.998 33.2538 226.516 31.7154 225.436 29.7462C224.386 27.7462 223.862 25.4385 223.862 22.8231Z" fill="white"/>
<path d="M192.114 22.7308C192.114 20.1769 192.639 17.9154 193.688 15.9462C194.768 13.9769 196.219 12.4538 198.04 11.3769C199.892 10.2692 201.929 9.71538 204.151 9.71538C206.157 9.71538 207.901 10.1154 209.383 10.9154C210.895 11.6846 212.099 12.6538 212.994 13.8231V10.1308H218.318V35.5615H212.994V31.7769C212.099 32.9769 210.88 33.9769 209.336 34.7769C207.793 35.5769 206.034 35.9769 204.059 35.9769C201.867 35.9769 199.861 35.4231 198.04 34.3154C196.219 33.1769 194.768 31.6077 193.688 29.6077C192.639 27.5769 192.114 25.2846 192.114 22.7308ZM212.994 22.8231C212.994 21.0692 212.623 19.5462 211.883 18.2538C211.173 16.9615 210.231 15.9769 209.059 15.3C207.886 14.6231 206.62 14.2846 205.262 14.2846C203.904 14.2846 202.639 14.6231 201.466 15.3C200.293 15.9462 199.336 16.9154 198.595 18.2077C197.886 19.4692 197.531 20.9769 197.531 22.7308C197.531 24.4846 197.886 26.0231 198.595 27.3462C199.336 28.6692 200.293 29.6846 201.466 30.3923C202.67 31.0692 203.935 31.4077 205.262 31.4077C206.62 31.4077 207.886 31.0692 209.059 30.3923C210.231 29.7154 211.173 28.7308 211.883 27.4385C212.623 26.1154 212.994 24.5769 212.994 22.8231Z" fill="white"/>
<path d="M181.012 13.8231C181.784 12.5308 182.802 11.5308 184.068 10.8231C185.364 10.0846 186.892 9.71538 188.651 9.71538V15.1615H187.309C185.241 15.1615 183.667 15.6846 182.586 16.7308C181.537 17.7769 181.012 19.5923 181.012 22.1769V35.5615H175.734V10.1308H181.012V13.8231Z" fill="white"/>
<path d="M142.228 22.7308C142.228 20.1769 142.752 17.9154 143.802 15.9462C144.882 13.9769 146.333 12.4538 148.154 11.3769C150.006 10.2692 152.043 9.71538 154.265 9.71538C156.271 9.71538 158.015 10.1154 159.497 10.9154C161.009 11.6846 162.213 12.6538 163.108 13.8231V10.1308H168.432V35.5615H163.108V31.7769C162.213 32.9769 160.994 33.9769 159.45 34.7769C157.907 35.5769 156.148 35.9769 154.172 35.9769C151.981 35.9769 149.975 35.4231 148.154 34.3154C146.333 33.1769 144.882 31.6077 143.802 29.6077C142.752 27.5769 142.228 25.2846 142.228 22.7308ZM163.108 22.8231C163.108 21.0692 162.737 19.5462 161.997 18.2538C161.287 16.9615 160.345 15.9769 159.173 15.3C158 14.6231 156.734 14.2846 155.376 14.2846C154.018 14.2846 152.753 14.6231 151.58 15.3C150.407 15.9462 149.45 16.9154 148.709 18.2077C147.999 19.4692 147.645 20.9769 147.645 22.7308C147.645 24.4846 147.999 26.0231 148.709 27.3462C149.45 28.6692 150.407 29.6846 151.58 30.3923C152.784 31.0692 154.049 31.4077 155.376 31.4077C156.734 31.4077 158 31.0692 159.173 30.3923C160.345 29.7154 161.287 28.7308 161.997 27.4385C162.737 26.1154 163.108 24.5769 163.108 22.8231Z" fill="white"/>
<path d="M132.549 14.4231V28.5C132.549 29.4538 132.765 30.1461 133.197 30.5769C133.66 30.9769 134.432 31.1769 135.512 31.1769H138.753V35.5615H134.586C132.209 35.5615 130.388 35.0077 129.123 33.9C127.857 32.7923 127.225 30.9923 127.225 28.5V14.4231H124.215V10.1307H127.225V3.80767H132.549V10.1307H138.753V14.4231H132.549Z" fill="white"/>
<path d="M92.8842 22.7308C92.8842 20.1769 93.4089 17.9154 94.4583 15.9462C95.5386 13.9769 96.9893 12.4538 98.8103 11.3769C100.662 10.2692 102.699 9.71538 104.921 9.71538C106.928 9.71538 108.672 10.1154 110.153 10.9154C111.665 11.6846 112.869 12.6538 113.764 13.8231V10.1308H119.088V35.5615H113.764V31.7769C112.869 32.9769 111.65 33.9769 110.107 34.7769C108.564 35.5769 106.804 35.9769 104.829 35.9769C102.638 35.9769 100.631 35.4231 98.8103 34.3154C96.9893 33.1769 95.5386 31.6077 94.4583 29.6077C93.4089 27.5769 92.8842 25.2846 92.8842 22.7308ZM113.764 22.8231C113.764 21.0692 113.394 19.5462 112.653 18.2538C111.943 16.9615 111.002 15.9769 109.829 15.3C108.656 14.6231 107.391 14.2846 106.033 14.2846C104.675 14.2846 103.409 14.6231 102.236 15.3C101.063 15.9462 100.107 16.9154 99.3658 18.2077C98.6559 19.4692 98.301 20.9769 98.301 22.7308C98.301 24.4846 98.6559 26.0231 99.3658 27.3462C100.107 28.6692 101.063 29.6846 102.236 30.3923C103.44 31.0692 104.705 31.4077 106.033 31.4077C107.391 31.4077 108.656 31.0692 109.829 30.3923C111.002 29.7154 111.943 28.7308 112.653 27.4385C113.394 26.1154 113.764 24.5769 113.764 22.8231Z" fill="white"/>
<path d="M61.1363 22.7308C61.1363 20.1769 61.661 17.9154 62.7104 15.9462C63.7907 13.9769 65.2413 12.4538 67.0624 11.3769C68.9142 10.2692 70.9668 9.71538 73.2199 9.71538C74.8866 9.71538 76.5224 10.0846 78.1274 10.8231C79.7632 11.5308 81.0595 12.4846 82.0163 13.6846V1.40769H87.3405V35.5615H82.0163V31.7308C81.1521 32.9615 79.9484 33.9769 78.4052 34.7769C76.8928 35.5769 75.1489 35.9769 73.1736 35.9769C70.9513 35.9769 68.9142 35.4231 67.0624 34.3154C65.2413 33.1769 63.7907 31.6077 62.7104 29.6077C61.661 27.5769 61.1363 25.2846 61.1363 22.7308ZM82.0163 22.8231C82.0163 21.0692 81.646 19.5462 80.9052 18.2538C80.1953 16.9615 79.2539 15.9769 78.0811 15.3C76.9082 14.6231 75.6428 14.2846 74.2847 14.2846C72.9267 14.2846 71.6612 14.6231 70.4883 15.3C69.3155 15.9462 68.3587 16.9154 67.6179 18.2077C66.908 19.4692 66.5531 20.9769 66.5531 22.7308C66.5531 24.4846 66.908 26.0231 67.6179 27.3462C68.3587 28.6692 69.3155 29.6846 70.4883 30.3923C71.6921 31.0692 72.9575 31.4077 74.2847 31.4077C75.6428 31.4077 76.9082 31.0692 78.0811 30.3923C79.2539 29.7154 80.1953 28.7308 80.9052 27.4385C81.646 26.1154 82.0163 24.5769 82.0163 22.8231Z" fill="white"/>
</svg>
