<svg width="349" height="399" viewBox="0 0 349 399" fill="none" xmlns="http://www.w3.org/2000/svg">
<path d="M254.339 262.801C256.202 262.702 258.002 262.086 259.538 261.022C261.073 259.958 262.283 258.488 263.034 256.775C263.673 254.597 261.372 253.828 260.602 256.263C259.959 257.596 258.988 258.742 257.78 259.595C256.573 260.447 255.168 260.977 253.699 261.135C253.188 261.263 252.165 262.843 254.339 262.801Z" fill="#282732"/>
<path d="M258.174 244.345C257.421 241.521 253.568 244.089 255.872 246.78C256.512 247.549 258.957 247.288 258.174 244.345Z" fill="#282732"/>
<path d="M252.676 232.427C250.883 232.933 250.885 234.99 253.185 234.99C255.756 234.8 258.337 235.199 260.732 236.155C260.897 236.211 261.076 236.208 261.239 236.148C261.402 236.087 261.54 235.973 261.629 235.823C261.718 235.673 261.754 235.498 261.73 235.325C261.706 235.152 261.623 234.993 261.497 234.874C260.289 233.852 258.876 233.105 257.353 232.683C255.831 232.261 254.235 232.173 252.676 232.427Z" fill="#282732"/>
<path d="M245.77 238.825C244.062 237.857 242.048 237.582 240.143 238.057C238.981 238.441 239.12 239.722 240.271 239.851C241.774 239.903 243.251 240.251 244.619 240.876C246.151 241.526 246.528 239.485 245.77 238.825Z" fill="#282732"/>
<path d="M247.813 247.679C247.45 250.528 247.408 253.409 247.686 256.268C248.199 259.599 255.742 257.165 254.593 255.37C253.954 254.345 251.396 256.535 249.732 255.755C249.288 253.087 249.117 250.381 249.222 247.679C249.222 247.492 249.148 247.312 249.016 247.18C248.884 247.048 248.705 246.973 248.518 246.973C248.331 246.973 248.152 247.048 248.02 247.18C247.888 247.312 247.813 247.492 247.813 247.679Z" fill="#282732"/>
<path d="M245.256 248.574C247.169 247.409 245.386 243.448 243.724 244.73C242.443 245.499 242.947 249.975 245.256 248.574Z" fill="#282732"/>
<path d="M232.34 258.956C234.131 264.851 238.478 272.54 243.465 276.128C245.767 277.794 246.918 276.128 244.628 273.95C239.712 269.798 236.001 264.397 233.886 258.313C233.801 258.108 233.638 257.945 233.433 257.86C233.228 257.775 232.998 257.775 232.792 257.86C232.587 257.945 232.425 258.109 232.34 258.314C232.255 258.52 232.255 258.751 232.34 258.956Z" fill="#282732"/>
<path d="M273.902 265.108C274.528 264.579 274.03 263.57 273.263 263.943C266.102 267.018 261.115 278.167 264.567 286.115C265.079 287.14 266.486 286.756 266.23 285.6C264.312 275.744 266.839 271.077 273.902 265.108Z" fill="#282732"/>
<path d="M231.191 267.543C232.195 270.746 233.833 273.714 236.009 276.269C238.184 278.823 240.851 280.911 243.85 282.408C245.513 283.177 247.175 281.895 244.618 280.23C239.355 277.208 235.189 272.584 232.725 267.03C232.086 266.005 230.907 266.396 231.191 267.543Z" fill="#282732"/>
<path d="M236.689 258.7C239.566 264.663 244.395 269.457 250.371 272.284C258.683 276.001 260.348 270.234 267.509 265.492C268.276 264.98 267.89 263.954 266.995 264.211C260.601 265.749 259.962 274.206 251.011 269.849C245.789 266.941 241.389 262.752 238.223 257.675C238.074 257.505 237.869 257.394 237.645 257.365C237.422 257.335 237.195 257.388 237.007 257.513C236.819 257.638 236.683 257.828 236.625 258.047C236.566 258.265 236.589 258.497 236.689 258.7Z" fill="#282732"/>
<path d="M247.814 292.415C248.455 293.438 250.118 292.544 249.604 291.518C247.174 284.98 237.456 283.571 234.003 277.804C233.364 276.779 232.213 277.804 232.608 278.829C236.177 285.612 243.477 285.477 247.814 292.415Z" fill="#282732"/>
<path d="M235.794 238.706C236.263 244.988 237.509 251.188 239.502 257.162C239.758 258.059 241.42 257.675 241.165 256.65C238.468 247.99 237.384 238.907 237.968 229.855C238.873 230.184 239.836 230.322 240.797 230.258C241.757 230.195 242.694 229.932 243.548 229.486C244.402 229.04 245.154 228.421 245.756 227.668C246.359 226.915 246.798 226.045 247.047 225.113C250.502 230.239 260.732 229.727 263.929 225.113C263.033 232.161 271.217 244.592 272.88 242.285C273.647 241.12 274.414 239.85 275.821 239.466C281.064 237.8 281.959 247.796 278.762 249.205C277.367 249.846 274.542 248.04 276.205 252.537C278.412 258.408 280.291 264.397 281.831 270.478C282.087 271.632 283.493 271.119 283.493 269.966C282.368 263.75 280.655 257.656 278.378 251.766C279.568 251.614 280.67 251.062 281.507 250.201C282.343 249.34 282.863 248.22 282.982 247.024C284.478 246.48 285.814 245.569 286.868 244.374C287.922 243.179 288.661 241.739 289.017 240.184C289.373 238.63 289.336 237.011 288.907 235.474C288.479 233.938 287.674 232.534 286.565 231.39C293.47 224.47 292.191 213.062 281.575 213.191C282.234 211.092 282.243 208.842 281.602 206.738C280.961 204.634 279.7 202.773 277.984 201.401C276.269 200.028 274.179 199.208 271.989 199.048C269.8 198.888 267.613 199.395 265.717 200.504C261.88 190.124 246.152 193.199 245.768 202.426C235.794 194.224 222.876 207.039 230.549 216.907C221.855 217.047 221.088 237.809 235.794 238.706Z" fill="#282732"/>
<path d="M253.314 299.583C254.08 300.442 255.089 301.046 256.207 301.314C257.325 301.582 258.498 301.502 259.568 301.084C260.639 300.666 261.557 299.93 262.199 298.974C262.841 298.019 263.177 296.89 263.161 295.738C265.277 294.909 267.328 293.924 269.299 292.791C269.012 291.049 268.359 289.389 267.381 287.921C265.39 288.437 263.46 289.168 261.626 290.099C260.887 289.181 259.875 288.523 258.738 288.22C257.6 287.916 256.396 287.984 255.299 288.412C254.202 288.84 253.269 289.607 252.636 290.601C252.003 291.596 251.703 292.767 251.778 293.944C250.499 294.713 249.092 295.61 248.581 295.994C248.517 297.765 249.005 299.511 249.976 300.992C251.01 300.608 252.28 300.104 253.314 299.583ZM254.463 293.944C254.867 289.459 260.74 289.971 260.22 295.61C259.836 300.223 253.979 299.329 254.463 293.944Z" fill="#282732"/>
<path d="M225.311 342.9C224.927 336.492 224.671 321.368 226.334 315.73C226.589 314.704 227.868 314.448 227.729 316.627C227.298 325.339 227.384 334.069 227.984 342.772C237.64 342.46 247.306 342.931 256.886 344.181C252.792 333.417 247.038 299.967 246.398 295.61C245.759 291.253 237.063 288.303 232.448 283.818C221.707 287.662 206.743 299.711 195.106 316.114C199.387 325.465 202.894 335.152 205.592 345.078C212.119 343.986 218.702 343.258 225.311 342.9Z" fill="#282732"/>
<path d="M285.54 272.797C280.297 278.307 275.822 280.998 267.894 281.127C269.556 292.544 279.532 309.194 288.228 321.37C289.587 318.473 290.574 315.415 291.167 312.269C291.425 310.475 292.562 311.116 292.562 312.141C292.353 316.185 291.489 320.168 290.004 323.933C300.492 338.286 314.184 352.126 319.299 369.557C325.054 362.253 347.562 322.258 331.961 295.738C322.757 279.717 302.678 271.515 285.54 272.797Z" fill="#282732"/>
<path d="M304.339 388.644C313.42 388.772 317.638 388.772 325.31 388.772C329.277 378.905 333.369 359.554 334.775 343.533C326.589 370.07 314.185 382.628 304.339 388.644Z" fill="#282732"/>
<path d="M269.426 380.706C254.991 382.075 240.7 384.691 226.714 388.523C235.026 388.395 264.951 388.139 275.437 388.395C272.722 386.48 270.631 383.806 269.426 380.706Z" fill="#282732"/>
<path d="M267.393 377.502C268.93 377.269 268.671 374.939 267.137 375.195C230.144 380.398 223.999 384.839 208.182 386.216C206.008 386.344 204.229 388.651 207.159 388.651C216.624 388.651 232.225 383.781 242.455 381.859C251.397 380.065 258.444 378.889 267.393 377.502Z" fill="#282732"/>
<path d="M210.216 346.744C204.585 347.872 205.996 349.692 208.042 349.179C222.622 346.103 242.315 346.744 256.895 349.179C258.302 349.435 258.941 347.257 257.535 347C243.082 344.566 224.654 343.857 210.216 346.744Z" fill="#282732"/>
<path d="M300.248 343.412C300.882 343.932 302.166 343.156 301.643 342.247C289.559 327.838 278.814 312.352 269.544 295.983C269.032 295.086 267.498 295.983 267.881 296.88C272.752 306.629 291.871 336.569 300.248 343.412Z" fill="#282732"/>
<path d="M316.104 370.582C316.616 369.3 314.942 368.275 314.314 369.417C310.478 376.209 305.874 383.001 298.458 386.333C290.913 389.793 282.599 388.768 277.1 382.232C265.208 368.135 256.512 323.283 253.313 302.902C253.057 301.621 251.267 302.134 251.523 303.415C254.208 322.894 262.915 368.776 275.566 383.77C285.254 395.341 305.7 392.479 316.104 370.582Z" fill="#282732"/>
<path d="M125.43 319.444C126.326 318.936 125.686 317.906 124.663 318.046C120.06 318.943 116.991 320.224 115.582 324.84C114.161 329.044 113.809 333.537 114.559 337.911C114.815 339.076 116.477 338.808 116.605 337.655C116.733 332.657 115.965 331.632 117.628 326.121C119.034 320.984 121.345 321.774 125.43 319.444Z" fill="#282732"/>
<path d="M127.093 299.839C126.952 302.618 127.038 305.403 127.348 308.168C127.476 309.194 129.267 309.065 129.394 308.168C129.452 305.386 129.324 302.603 129.011 299.839C128.881 298.939 127.114 298.939 127.093 299.839Z" fill="#282732"/>
<path d="M136.811 298.814C140.227 296.95 145.646 293.303 147.937 288.816C148.576 287.534 148.45 287.15 147.553 285.996C146.423 284.715 145.087 283.633 143.6 282.792C142.068 282.024 141.938 282.536 140.789 283.305C133.243 288.559 121.724 287.534 113.803 283.433C113.164 283.049 111.374 284.074 113.036 284.971C122.885 289.971 133.496 290.868 142.577 284.458C144.041 285.388 145.374 286.509 146.544 287.79C143.515 292.104 139.415 295.55 134.649 297.788C132.859 295.61 131.069 293.559 129.278 291.381C126.579 288.377 125.472 293.783 121.092 298.173C116.66 295.979 112.424 293.406 108.432 290.484C109.711 289.2 110.862 287.921 112.141 286.637C112.908 285.996 111.885 284.715 110.978 285.239C109.63 286.218 108.387 287.334 107.27 288.571C106.812 289.1 106.581 289.789 106.629 290.488C106.677 291.187 107 291.838 107.526 292.299C109.572 294.221 119.93 300.885 121.594 300.116C124.408 298.718 125.942 294.99 127.86 292.683C129.65 294.477 132.08 298.066 133.487 299.475C134.382 300.479 135.907 299.308 136.811 298.814Z" fill="#282732"/>
<path d="M150.368 247.292C150.832 245.321 151.004 243.291 150.878 241.269C150.622 239.091 148.578 238.963 148.704 241.398C148.959 244.601 147.811 248.318 148.195 249.087C149.09 251.267 152.287 247.689 153.819 249.986C155.993 253.574 151.261 260.366 148.32 258.572C147.555 258.059 146.925 258.444 146.402 260.11C145.62 262.354 144.591 264.503 143.333 266.517C136.428 276.641 122.489 279.204 114.817 270.478C112.112 266.968 110.351 262.82 109.702 258.432C109.682 258.144 109.587 257.865 109.427 257.624C109.267 257.384 109.046 257.189 108.788 257.06C108.53 256.93 108.243 256.871 107.954 256.887C107.666 256.903 107.387 256.994 107.144 257.151C104.459 259.201 102.029 256.126 101.774 252.281C101.39 247.025 104.587 246.64 106.889 248.434C107.032 248.551 107.208 248.619 107.392 248.63C107.576 248.64 107.759 248.593 107.914 248.493C108.07 248.394 108.19 248.249 108.259 248.077C108.327 247.905 108.34 247.716 108.295 247.537C108.167 246.372 107.528 239.848 107.528 238.438C107.4 237.157 105.866 237.67 105.866 238.823C105.993 241.13 106.121 243.564 106.377 245.743C105.672 245.4 104.894 245.235 104.11 245.262C103.327 245.288 102.561 245.506 101.881 245.897C101.201 246.287 100.626 246.838 100.206 247.501C99.7859 248.165 99.534 248.921 99.4719 249.704C98.4489 256.626 103.308 262.009 107.784 259.446C109.062 265.084 111.236 270.851 115.97 274.311C115.712 276.618 115.586 278.925 115.331 281.231C115.203 283.282 116.609 283.538 117.121 282.513C117.466 280.177 117.68 277.824 117.76 275.465C120.894 277.101 124.408 277.869 127.938 277.689C131.467 277.509 134.885 276.387 137.837 274.439C137.965 276.746 137.837 279.181 138.092 281.488C138.095 281.633 138.128 281.777 138.189 281.909C138.251 282.042 138.34 282.159 138.45 282.255C138.559 282.35 138.688 282.422 138.828 282.464C138.967 282.507 139.113 282.519 139.258 282.501C139.402 282.483 139.541 282.435 139.666 282.359C139.79 282.284 139.898 282.183 139.981 282.063C140.064 281.943 140.121 281.807 140.148 281.664C140.175 281.521 140.172 281.373 140.138 281.231C139.755 277.387 140.011 274.952 139.883 273.03C143.755 269.953 146.572 265.742 147.941 260.984C148.716 261.168 149.522 261.172 150.298 260.994C151.074 260.816 151.799 260.462 152.417 259.958C158.425 255.881 157.911 244.986 150.368 247.292Z" fill="#282732"/>
<path d="M118.526 236.015C117.232 235.99 115.948 236.24 114.757 236.748C113.566 237.256 112.497 238.011 111.618 238.963C110.851 239.732 111.362 241.398 112.897 240.629C114.549 239.44 116.497 238.731 118.526 238.578C120.827 238.322 120.453 236.153 118.526 236.015Z" fill="#282732"/>
<path d="M149.599 316.37C149.241 313.255 148.071 310.29 146.208 307.771C144.346 305.252 141.855 303.268 138.986 302.017C137.591 301.505 137.451 302.914 138.474 303.415C144.996 306.875 147.553 313.539 147.811 320.59C148.065 326.356 145.379 335.327 152.157 338.531C153.319 339.043 154.205 337.133 153.052 336.608C147.297 333.929 150.952 325.094 149.599 316.37Z" fill="#282732"/>
<path d="M120.186 304.196C120.811 303.415 120.058 302.402 119.162 303.031C114.194 307.293 110.554 312.899 108.677 319.178C107.782 322.512 108.037 325.972 107.27 329.176C106.375 332.892 103.178 334.302 100.237 336.352C99.214 336.993 100.109 338.787 101.26 338.274C104.127 337.1 106.577 335.091 108.293 332.507C110.979 327.894 108.293 322.127 113.792 312.514C115.713 309.585 117.85 306.804 120.186 304.196Z" fill="#282732"/>
<path d="M112.513 332.007C112.952 328.046 112.641 323.931 114.815 320.343C115.794 318.861 117.075 317.603 118.574 316.653C120.073 315.704 121.756 315.083 123.512 314.832C125.047 314.576 124.907 313.038 123.512 313.038C121.485 313.105 119.502 313.651 117.724 314.631C115.947 315.61 114.425 316.997 113.282 318.677C111.076 322.701 110.224 327.331 110.853 331.878C110.85 332.776 112.399 333.032 112.513 332.007Z" fill="#282732"/>
<path d="M128.125 330.861C127.66 334.2 128.381 383.789 128.509 386.48C128.509 387.89 130.811 387.762 130.811 386.352C130.811 372.139 130.171 346.495 129.915 330.989C129.778 330.213 128.258 329.828 128.125 330.861Z" fill="#282732"/>
<path d="M141.799 354.433C140.332 353.88 139.026 352.97 137.999 351.784C136.972 350.598 136.256 349.174 135.916 347.641C134.51 340.849 141.543 334.314 137.962 327.265C137.336 325.947 136.298 324.87 135.005 324.197C133.712 323.524 132.235 323.293 130.799 323.537C130.612 323.537 130.434 323.612 130.302 323.744C130.17 323.876 130.096 324.055 130.096 324.242C130.096 324.429 130.17 324.608 130.302 324.741C130.434 324.873 130.612 324.947 130.799 324.947C131.629 324.978 132.443 325.178 133.194 325.534C133.944 325.89 134.615 326.395 135.165 327.018C135.715 327.641 136.133 328.37 136.394 329.16C136.655 329.949 136.754 330.784 136.684 331.613C136.684 335.329 134.638 338.789 133.87 342.378C133.09 345.199 133.392 348.211 134.718 350.82C136.043 353.43 138.296 355.447 141.031 356.474C142.438 357.124 143.201 354.964 141.799 354.433Z" fill="#282732"/>
<path d="M99.2138 339.44C99.0789 338.414 99.2137 334.954 97.4235 335.479C95.8544 335.769 94.314 336.198 92.82 336.76C90.774 337.657 89.751 339.964 92.5642 339.195C93.843 338.81 95.2496 338.426 96.5167 338.03C97.1681 346.335 100.488 354.204 105.979 360.458C98.488 366.872 90.3896 372.538 81.7995 377.374C79.3699 378.784 80.0092 380.962 82.0552 379.809C91.3496 374.948 99.9876 368.919 107.76 361.868C108.144 361.484 108.656 360.971 108.144 360.202C103.561 353.023 100.309 347.776 99.2138 339.44Z" fill="#282732"/>
<path d="M208.043 368.019C206.627 354.563 197.046 328.29 191.675 316.626C183.488 299.07 170.573 292.662 152.415 288.687C152.177 288.636 151.929 288.681 151.725 288.813C151.52 288.946 151.377 289.154 151.326 289.392C151.274 289.63 151.32 289.879 151.452 290.084C151.584 290.288 151.791 290.432 152.029 290.484C167.76 295.994 179.396 298.044 187.966 314.319C194.104 325.983 207.659 361.74 205.741 375.452C204.207 386.088 198.58 385.575 191.163 386.088C177.862 386.985 155.1 369.172 145.635 360.458C152.029 355.971 156.123 345.718 157.274 338.542C167.455 341.342 177.283 345.298 186.569 350.332C187.85 350.973 188.873 349.307 187.594 348.666C181.681 345.342 175.524 342.472 169.178 340.08C168.626 337.022 167.306 334.155 165.342 331.75C164.319 330.853 163.807 332.006 164.191 332.647C165.44 334.678 166.387 336.879 167.004 339.183C163.975 338.021 160.852 337.12 157.669 336.492C155.24 336.107 155.24 336.492 154.856 338.542C150.634 358.92 141.043 358.405 143.729 361.355C153.194 371.992 175.955 388.01 190.791 388.267C204.718 388.644 209.568 382.502 208.043 368.019Z" fill="#282732"/>
<path d="M143.077 327.265C142.918 325.393 142.218 323.607 141.061 322.127C139.905 320.647 138.343 319.537 136.567 318.933C134.377 318.508 132.146 318.336 129.918 318.421C128.892 318.421 128.892 319.702 129.79 319.961C133.498 320.986 136.567 319.574 139.252 323.421C142.194 327.522 140.531 331.494 141.043 333.929C141.112 334.121 141.236 334.288 141.399 334.411C141.562 334.533 141.757 334.606 141.96 334.619C142.163 334.633 142.366 334.587 142.544 334.487C142.721 334.387 142.866 334.238 142.961 334.057C143.392 331.817 143.432 329.519 143.077 327.265Z" fill="#282732"/>
<path d="M126.581 322.78C125.107 323.249 123.751 324.029 122.603 325.068C121.456 326.107 120.544 327.381 119.929 328.803C114.559 340.08 129.267 348.41 108.037 356.229C107.777 356.307 107.556 356.483 107.422 356.719C107.287 356.956 107.249 357.235 107.315 357.5C107.381 357.764 107.546 357.992 107.775 358.138C108.005 358.283 108.282 358.334 108.549 358.28C111.934 357.481 115.087 355.9 117.756 353.664C129.65 343.668 112.641 334.057 127.221 324.19C127.988 323.549 127.607 322.538 126.581 322.78Z" fill="#282732"/>
<path d="M115.454 247.421C117.1 248.851 119.174 244.345 116.991 243.192C115.07 242.167 114.292 246.41 115.454 247.421Z" fill="#282732"/>
<path d="M141.287 318.164C144.582 321.277 144.356 325.853 144.484 330.085C144.484 331.11 146.018 330.982 146.274 330.085C146.914 325.471 146.402 319.958 142.822 316.498C138.985 312.91 133.103 312.397 128.244 313.166C128.133 313.171 128.025 313.2 127.926 313.25C127.827 313.3 127.739 313.37 127.67 313.457C127.6 313.543 127.549 313.643 127.521 313.751C127.493 313.858 127.488 313.97 127.506 314.08C127.524 314.189 127.565 314.294 127.627 314.386C127.688 314.479 127.769 314.557 127.862 314.616C127.956 314.675 128.062 314.713 128.172 314.729C128.281 314.744 128.393 314.735 128.5 314.704C132.847 314.704 137.8 314.87 141.287 318.164Z" fill="#282732"/>
<path d="M97.5514 244.217C98.7 245.244 99.9811 243.448 98.9581 242.423C91.5413 234.99 91.5413 223.71 96.6563 214.996C111.362 189.62 155.1 194.748 164.179 220.891C165.753 225.07 165.917 229.651 164.647 233.933C163.377 238.215 160.742 241.962 157.146 244.601C156.379 245.242 157.018 246.652 158.041 246.139C168.271 241.013 170.061 227.557 165.841 217.946C153.31 189.366 104.585 187.828 92.6922 217.946C89.1117 226.788 90.2509 237.693 97.5514 244.217Z" fill="#282732"/>
<path d="M101.516 236.528C109.307 237.399 118.909 231.915 122.745 225.251C122.862 225.063 122.903 224.839 122.861 224.622C122.819 224.405 122.697 224.212 122.518 224.082C122.34 223.952 122.119 223.895 121.9 223.921C121.682 223.948 121.481 224.057 121.339 224.226C115.584 231.274 110.339 233.581 101.516 234.606C101.288 234.643 101.082 234.76 100.932 234.936C100.783 235.112 100.701 235.336 100.701 235.567C100.701 235.798 100.783 236.021 100.932 236.197C101.082 236.374 101.288 236.491 101.516 236.528Z" fill="#282732"/>
<path d="M126.07 256.265C126.967 255.627 126.965 254.727 126.07 254.343C125.43 254.087 121.978 254.984 121.722 254.343C121.211 253.061 123.129 247.549 123.512 244.858C123.768 242.935 122.873 242.935 121.978 244.473C121.083 246.011 118.258 253.83 119.546 256.137C120.827 258.059 124.796 257.167 126.07 256.265Z" fill="#282732"/>
<path d="M74.2763 309.963C82.0651 299.06 90.6467 294.584 103.434 290.612C104.713 290.227 104.329 288.177 103.051 288.561C88.3449 292.919 80.798 297.019 71.8467 309.45C70.568 310.988 72.9953 311.754 74.2763 309.963Z" fill="#282732"/>
<path d="M153.7 237.681C153.886 237.625 154.048 237.507 154.158 237.346C154.268 237.185 154.32 236.991 154.305 236.797C154.29 236.602 154.209 236.419 154.076 236.276C153.943 236.134 153.765 236.042 153.572 236.015C145.641 235.887 136.051 234.734 130.04 228.967C124.414 223.585 121.601 214.227 121.206 206.667C121.078 205.385 119.159 205.269 119.287 206.538C119.415 214.484 123.007 224.866 128.75 230.377C134.493 235.887 145.878 238.884 153.7 237.681Z" fill="#282732"/>
<path d="M122.617 263.57C126.762 265.776 131.952 264.467 133.358 260.494C133.614 259.597 132.591 258.828 131.952 259.597C128.232 263.954 125.046 262.16 123.117 262.288C122.105 262.16 121.859 263.167 122.617 263.57Z" fill="#282732"/>
<path d="M139.114 241.91C138.147 239.114 132.72 236.016 130.163 236.913C129.14 237.297 128.756 239.347 130.163 239.604C133.005 239.974 135.674 241.178 137.835 243.064C138.475 243.576 139.472 242.945 139.114 241.91Z" fill="#282732"/>
<path d="M130.93 248.318C133.364 247.833 133.232 243.32 131.314 243.832C129.521 244.217 128.886 248.725 130.93 248.318Z" fill="#282732"/>
<path d="M201.521 167.322C202.802 166.945 204.079 166.553 205.358 166.157C204.59 169.361 203.695 172.565 202.928 175.769C201.649 180.382 203.439 180.766 204.462 179.1C207.659 174.103 210.984 168.977 214.437 164.107C219.17 157.315 220.319 157.956 211.623 158.212C213.158 155.262 214.692 152.315 216.099 149.358C217.506 146.401 208.043 149.742 207.148 150.511C206.968 150.626 206.838 150.804 206.781 151.01C206.724 151.216 206.746 151.435 206.841 151.626C206.936 151.817 207.099 151.966 207.297 152.044C207.495 152.122 207.716 152.124 207.915 152.049C208.938 151.793 211.112 150.768 213.542 150.255L209.322 158.715C209.066 159.356 209.322 160.125 210.089 160.125C211.751 160.125 213.542 159.997 215.204 159.997C212.007 164.61 208.81 169.352 205.613 173.965L208.299 164.738C208.366 164.554 208.382 164.355 208.345 164.162C208.307 163.969 208.218 163.79 208.086 163.645C207.954 163.5 207.785 163.393 207.597 163.337C207.409 163.282 207.209 163.279 207.02 163.329C205.741 163.713 204.335 164.226 203.067 164.61C203.835 160.894 204.858 157.177 205.753 153.331C206.009 152.305 204.474 152.049 204.09 152.946C202.602 157.13 201.406 161.412 200.51 165.761C200.115 166.553 200.628 167.583 201.521 167.322Z" fill="#282732"/>
<path d="M47.0364 264.222C47.6781 264.735 48.7012 264.222 48.3175 263.453C47.4201 260.89 46.6528 258.327 48.5733 255.636C49.3592 254.581 50.4175 253.76 51.6344 253.263C52.8512 252.766 54.1803 252.611 55.4785 252.814C55.6884 252.813 55.8923 252.744 56.0596 252.617C56.2269 252.49 56.3485 252.312 56.4061 252.11C56.4638 251.908 56.4544 251.692 56.3794 251.496C56.3043 251.299 56.1677 251.132 55.99 251.02C52.4095 249.354 45.3741 252.43 45.3741 259.224C45.2742 260.128 45.3711 261.043 45.6581 261.906C45.9451 262.769 46.4153 263.559 47.0364 264.222Z" fill="#282732"/>
<path d="M42.1769 279.333C42.1898 279.613 42.31 279.877 42.5124 280.071C42.7148 280.265 42.984 280.373 43.2638 280.373C43.5437 280.373 43.8128 280.265 44.0152 280.071C44.2177 279.877 44.3378 279.613 44.3508 279.333C44.627 276.972 44.4535 274.58 43.8393 272.284C42.5605 267.799 38.3406 266.133 38.4685 261.648C38.5964 258.957 39.1079 256.266 39.2358 253.703C39.2331 253.493 39.1523 253.292 39.0093 253.139C38.8663 252.987 38.6714 252.893 38.463 252.877C38.2546 252.861 38.0478 252.924 37.8831 253.053C37.7185 253.182 37.608 253.368 37.5734 253.574C37.0619 256.137 36.5504 258.7 36.2946 261.263C35.7831 266.902 39.6194 268.44 41.1539 272.028C42.1864 274.314 42.5415 276.85 42.1769 279.333Z" fill="#282732"/>
<path d="M43.5837 231.53L45.5019 250.368C45.6297 251.137 47.0364 251.137 47.1642 250.24C47.8036 245.499 46.1412 236.144 45.1182 231.134C44.9903 230.377 43.4559 230.633 43.5837 231.53Z" fill="#282732"/>
<path d="M56.5005 266.133C56.9981 267.165 58.2908 266.389 58.035 265.492C57.6514 263.314 56.7563 260.751 60.9761 260.751C64.4288 260.751 64.9286 263.826 64.8124 266.646C64.5566 271.9 60.081 276.385 60.081 281.127C60.0856 281.394 60.187 281.651 60.3663 281.85C60.5456 282.049 60.7907 282.175 61.0562 282.207C61.3216 282.238 61.5894 282.172 61.8098 282.02C62.0303 281.869 62.1884 281.642 62.2549 281.383C63.5336 276.129 64.0451 276.641 65.8354 272.284C67.3821 269.038 67.6113 265.316 66.4748 261.904C63.9173 256.137 52.4318 257.724 56.5005 266.133Z" fill="#282732"/>
<path d="M50.7479 259.469C50.501 261.368 50.859 263.297 51.7709 264.979C51.8748 265.131 52.0287 265.241 52.2054 265.289C52.3822 265.338 52.5704 265.323 52.7371 265.247C52.9038 265.17 53.0382 265.037 53.1166 264.871C53.195 264.705 53.2125 264.516 53.1659 264.339C52.6544 261.648 52.1429 258.444 54.7004 257.034C55.826 256.344 57.1061 255.947 58.4239 255.88C59.7417 255.813 61.0554 256.078 62.245 256.65C63.1402 257.162 63.9074 255.753 63.268 255.112C61.1058 252.421 51.5152 253.446 50.7479 259.469Z" fill="#282732"/>
<path d="M-7.05776 237.938C-7.82501 238.066 -8.59226 238.194 -9.23163 238.322C-10.3825 234.734 -13.8351 231.018 -18.055 232.556C-22.5306 234.222 -22.6608 239.091 -22.4028 241.27C-26.1228 241.654 -29.9497 242.167 -33.6581 242.551C-33.8682 242.601 -34.0539 242.724 -34.1818 242.898C-34.3097 243.073 -34.3715 243.287 -34.3561 243.503C-34.3407 243.719 -34.2492 243.922 -34.0978 244.076C-33.9465 244.231 -33.7453 244.326 -33.5302 244.345C-29.694 244.089 -25.8577 243.833 -22.0191 243.705C-19.7685 255.236 -6.76946 252.107 -8.59226 240.629C-7.95289 240.501 -7.31351 240.501 -6.80201 240.373C-5.38144 250.345 6.18777 250.653 5.09037 238.835C6.11337 238.835 8.28724 238.322 7.26424 236.785C6.75274 236.016 5.60187 236.528 4.83462 236.656C2.78862 228.198 -6.67414 229.224 -7.05776 237.938ZM-20.3568 242.295C-20.7404 239.348 -20.101 236.272 -18.1829 235.119C-14.986 233.068 -11.7891 236.272 -10.7661 240.373C-8.65038 250.184 -19.1152 252.263 -20.3568 242.295ZM0.48687 245.627C-4.20963 247.258 -7.36466 236.566 -3.22151 233.453C2.28176 229.135 5.88551 243.742 0.482212 245.627H0.48687Z" fill="#282732"/>
<path d="M2.53356 248.959C2.41266 247.677 1.13857 247.677 1.13857 248.959C1.39432 257.675 0.499189 271.644 -11.9047 272.669C-16.7663 273.053 -22.0091 270.747 -26.229 268.312C-26.9963 267.799 -28.0193 269.081 -27.1241 269.721C-22.8989 272.769 -17.8737 274.507 -12.6719 274.719C-12.4162 276.77 -11.9047 278.948 -11.6489 280.999C-11.0096 284.971 -9.47506 283.049 -9.73081 281.767C-10.0001 279.366 -10.3413 276.972 -10.7538 274.591C1.25481 272.669 3.47984 258.952 2.53356 248.959Z" fill="#282732"/>
<path d="M-1.17588 239.604C-1.45023 240.496 -1.04801 242.807 0.219114 242.295C0.858489 242.038 1.11424 241.398 0.986368 240.244C0.742243 238.825 -0.696932 238.057 -1.17588 239.604Z" fill="#282732"/>
<path d="M-57.4444 232.684C-57.6543 236.661 -56.7317 240.616 -54.7841 244.087C-52.8366 247.559 -49.9444 250.404 -46.4448 252.291C-45.8054 256.007 -43.3758 260.366 -38.7723 260.366C-37.3972 267.216 -36.4999 274.153 -36.0869 281.127C-36.0958 281.25 -36.0792 281.374 -36.0383 281.49C-35.9973 281.607 -35.9328 281.714 -35.8488 281.804C-35.7648 281.895 -35.6631 281.967 -35.5501 282.016C-35.4371 282.065 -35.3151 282.091 -35.1918 282.091C-35.0685 282.091 -34.9465 282.065 -34.8335 282.016C-34.7204 281.967 -34.6188 281.895 -34.5348 281.804C-34.4508 281.714 -34.3863 281.607 -34.3453 281.49C-34.3044 281.374 -34.2878 281.25 -34.2967 281.127C-34.429 274.454 -35.1565 267.806 -36.4705 261.264C-36.7263 260.11 -36.7263 257.801 -38.005 257.929C-40.5625 258.186 -43.12 256.007 -43.8873 251.906C-44.7824 247.549 -42.3528 243.961 -38.9002 245.615C-38.3887 245.872 -38.005 245.487 -37.7493 245.231C-32.7622 240.361 -26.4963 231.391 -26.4963 221.521C-19.8468 224.471 -3.86009 225.624 3.42878 223.187C2.91729 213.447 -6.41759 198.454 -27.1357 200.504C-50.281 202.822 -57.2165 220.507 -57.4444 232.684Z" fill="#282732"/>
<path d="M-4.24428 228.711C-2.61878 228.215 -0.882641 228.215 0.74285 228.711C2.0216 229.095 1.89372 227.814 0.870717 226.917C-0.00627995 226.452 -0.966894 226.168 -1.95495 226.08C-2.943 225.992 -3.93865 226.102 -4.88365 226.404C-6.80178 227.301 -6.1438 229.524 -4.24428 228.711Z" fill="#282732"/>
<path d="M78.7513 313.038C62.5112 312.791 35.6551 312.141 20.9495 313.422C9.43839 314.448 6.62515 318.036 3.93977 328.034C0.103523 342.643 -6.03448 367.122 -8.08048 381.09C-23.5332 380.861 -38.987 381.46 -54.3759 382.884C-60.1303 383.653 -60.5139 387.882 -58.7236 389.676C-57.8285 390.573 -56.6776 389.292 -57.3286 388.395C-57.4553 388.168 -57.536 387.918 -57.566 387.66C-57.596 387.401 -57.5747 387.139 -57.5034 386.889C-57.4321 386.639 -57.3122 386.406 -57.1505 386.202C-56.9888 385.999 -56.7886 385.829 -56.5614 385.704C-53.3645 383.525 -14.6137 383.141 -9.1151 383.141C-7.06911 383.141 -6.42973 382.884 -5.91823 380.706C-2.08198 362.637 2.91677 341.874 7.50865 324.83C8.90365 319.317 13.1351 316.37 19.9148 315.857C37.0501 314.448 61.2208 315.216 79.379 315.473C85.7751 315.601 89.609 318.164 89.0999 325.343C88.4605 334.954 80.0184 364.431 76.9494 375.323C75.9766 379.596 74.473 383.729 72.4738 387.626C71.7066 388.907 73.6247 390.319 74.3919 389.024C76.6893 384.21 78.5303 379.19 79.8905 374.03C83.9825 359.678 89.7393 338.915 91.5295 326.228C92.32 317.523 87.4491 313.171 78.7513 313.038Z" fill="#282732"/>
<path d="M43.8385 343.797C43.3201 344.561 44.2221 345.719 45.1173 345.078C46.016 344.344 47.1341 343.933 48.2933 343.91C49.4525 343.886 50.586 344.253 51.5134 344.95C53.1757 346.488 53.5594 349.692 50.4904 355.202C46.6518 362.253 41.4089 363.278 39.0978 360.459C36.2846 356.999 38.97 349.948 41.6553 347.129C42.2947 346.36 41.1438 345.206 40.4928 345.847C34.8663 350.973 33.8433 358.536 37.0402 361.996C42.1552 367.635 49.5743 363.022 52.3852 356.999C54.0476 353.408 56.6051 348.538 54.3034 344.822C53.8276 343.887 53.1246 343.087 52.2591 342.495C51.3936 341.904 50.3935 341.54 49.351 341.438C48.3085 341.336 47.2571 341.499 46.2937 341.911C45.3303 342.323 44.486 342.972 43.8385 343.797Z" fill="#282732"/>
<path d="M59.1864 186.291C62.1415 184.389 58.2913 179.368 55.2339 182.444C52.6648 184.881 56.7684 187.845 59.1864 186.291Z" fill="#282732"/>
<path d="M27.9832 188.467C31.3172 189.723 33.8654 186.033 31.8194 184.11C29.0062 181.419 24.1585 187.027 27.9832 188.467Z" fill="#282732"/>
<path d="M42.1769 187.7C46.6549 189.098 48.315 183.343 43.9672 182.318C41.154 181.677 38.4709 186.54 42.1769 187.7Z" fill="#282732"/>
<path d="M212.006 210.511C211.381 209.222 209.835 209.614 209.96 210.767C210.474 214.728 218.4 215.381 220.704 211.023C224.794 203.078 211.869 200.771 210.218 205.897C209.579 207.82 211.239 207.692 212.137 206.282C213.285 204.36 220.83 205.117 218.786 209.742C217.891 212.049 213.055 212.678 212.006 210.511Z" fill="#1FB4FF"/>
<path d="M190.14 183.728C190.012 190.776 197.429 193.339 203.056 194.492C223.646 198.721 232.981 187.7 230.423 180.009C230.409 179.906 230.374 179.806 230.318 179.718C230.263 179.629 230.189 179.554 230.103 179.496C230.016 179.439 229.918 179.4 229.815 179.384C229.712 179.367 229.607 179.373 229.506 179.401C229.406 179.429 229.312 179.477 229.232 179.544C229.152 179.611 229.087 179.694 229.042 179.788C228.997 179.882 228.972 179.985 228.97 180.089C228.967 180.194 228.987 180.298 229.028 180.394C229.796 189.751 218.924 193.209 211.379 193.339C205.497 193.467 189.257 190.392 192.709 181.419C193.349 179.881 192.198 178.984 191.314 179.881C186.072 185.394 178.141 183.856 174.305 177.19C170.213 170.013 172.387 159.89 181.338 161.043C181.61 161.059 181.878 160.974 182.091 160.804C182.305 160.635 182.449 160.393 182.496 160.125C182.544 159.856 182.491 159.579 182.348 159.347C182.205 159.115 181.982 158.943 181.721 158.864C174.177 155.789 172.886 143.997 181.977 138.486C190.675 133.232 197.964 136.179 203.846 143.1C204.869 144.381 206.148 144.125 206.276 141.562C206.915 134.898 215.355 131.053 221.367 132.591C222.962 133.109 224.438 133.941 225.71 135.036C226.981 136.132 228.022 137.47 228.771 138.973C229.521 140.476 229.965 142.113 230.077 143.79C230.189 145.466 229.967 147.149 229.424 148.738C229.04 149.903 230.191 150.278 231.086 150.022C239.014 147.969 247.454 156.686 248.221 164.247C249.5 176.549 238.503 176.933 231.853 175.524C230.574 175.268 230.83 176.689 231.853 177.062C241.444 180.265 251.418 175.78 250.267 164.247C249.5 155.789 240.677 146.56 231.725 147.969C232.348 145.166 232.161 142.244 231.188 139.543C230.214 136.843 228.493 134.476 226.227 132.719C218.04 126.696 205.892 131.951 204.23 140.28C201.643 137.064 198.016 134.855 193.975 134.036C189.935 133.217 185.736 133.839 182.105 135.795C173.41 140.28 169.318 151.944 177.504 158.608C171.491 160.018 168.806 166.041 169.573 172.192C171.468 183.215 182.593 188.982 190.14 183.728Z" fill="#1FB4FF"/>
<path d="M328.773 393.011C219.512 391.886 39.2708 389.749 -98.0972 395.958C-98.9923 395.958 -98.8644 398.778 -97.9693 398.778C34.1209 395.43 154.858 392.857 328.901 396.727C330.045 396.727 329.914 393.023 328.773 393.011Z" fill="#1FB4FF"/>
<path d="M32.459 310.356C38.8527 310.356 51.3868 310.356 59.9544 310.228C61.8274 301.477 63.1475 292.616 63.9069 283.699C57.1296 284.596 44.3397 283.955 38.7132 281.776C37.3881 291.454 35.2968 301.011 32.459 310.356Z" fill="#1FB4FF"/>
<path d="M-62.2924 388.644C-62.6573 387.062 -62.4767 385.403 -61.7801 383.937C-61.0835 382.471 -59.9118 381.284 -58.4562 380.571C-55.0036 378.905 -19.5775 378.649 -11.2587 378.264C-10.8751 376.214 -9.72419 370.703 -8.06181 363.527C-28.9956 359.316 -50.2713 357.043 -71.6203 356.735C-73.5385 356.735 -72.7712 354.939 -71.6203 354.939C-68.5513 354.811 -65.4823 354.811 -62.4133 354.811C-60.0484 345.438 -56.5251 336.397 -51.9253 327.899C-51.4138 327.002 -50.2629 327.515 -50.6465 328.412C-54.6089 336.943 -57.7773 345.823 -60.1116 354.939C-42.4223 355.616 -24.8092 357.63 -7.42243 360.964C-4.60918 348.787 -0.772942 333.153 2.80756 322.645C5.87656 313.288 10.7358 310.981 17.2598 310.596C21.5197 310.411 25.7845 310.369 30.0473 310.468C30.5588 308.93 31.0703 307.393 31.5818 305.47C25.3159 295.218 11.8867 286.117 -6.39944 284.708C-12.6653 292.143 -30.1865 291.374 -39.7771 282.273C-45.4036 282.914 -63.9571 287.014 -75.073 299.576C-90.676 317.517 -111.903 358.657 -101.673 380.315C-96.5769 391.345 -68.0584 389.292 -62.2924 388.644Z" fill="#1FB4FF"/>
<path d="M113.92 88.5054C114.312 85.3016 112.129 69.0242 110.467 67.4864C110.369 67.3836 110.247 67.3068 110.112 67.2628C109.978 67.2188 109.834 67.2091 109.695 67.2345C109.555 67.2599 109.424 67.3197 109.313 67.4084C109.203 67.4971 109.116 67.612 109.06 67.7427C108.549 68.8961 111.618 86.4526 112.001 88.5054C112.051 88.7233 112.173 88.9179 112.347 89.0573C112.521 89.1968 112.737 89.2727 112.96 89.2727C113.183 89.2727 113.4 89.1968 113.574 89.0573C113.748 88.9179 113.87 88.7233 113.92 88.5054Z" fill="#1FB4FF"/>
<path d="M131.952 153.864C132.047 153.671 132.09 153.456 132.077 153.241C132.064 153.026 131.996 152.818 131.879 152.637C131.762 152.456 131.6 152.309 131.409 152.21C131.218 152.11 131.005 152.062 130.79 152.07C128.616 152.07 125.675 156.301 114.931 154.761C113.769 154.633 113.013 156.301 114.164 156.814C120.955 159.372 130.916 156.297 131.952 153.864Z" fill="#1FB4FF"/>
<path d="M144.995 131.31C149.605 133.993 154.441 136.266 159.448 138.102C159.668 138.136 159.893 138.099 160.091 137.997C160.289 137.894 160.449 137.732 160.548 137.532C160.648 137.332 160.682 137.106 160.645 136.886C160.608 136.666 160.502 136.464 160.343 136.308C155.752 133.624 150.912 131.392 145.891 129.644C145.67 129.525 145.412 129.499 145.172 129.571C144.932 129.643 144.731 129.807 144.612 130.028C144.493 130.249 144.467 130.508 144.539 130.749C144.611 130.989 144.775 131.191 144.995 131.31Z" fill="#1FB4FF"/>
<path d="M120.572 159.633C120.31 159.577 120.036 159.622 119.805 159.757C119.573 159.893 119.4 160.11 119.32 160.367C119.241 160.623 119.259 160.9 119.372 161.144C119.485 161.388 119.685 161.58 119.932 161.684C123.129 163.478 128.767 161.427 126.582 159.505C125.568 158.608 124.02 160.304 120.572 159.633Z" fill="#1FB4FF"/>
<path d="M142.182 101.192C144.091 100.4 154.333 88.3772 155.995 86.0705C156.635 85.1734 155.228 84.2764 154.461 84.9171C150.225 89.013 146.212 93.3335 142.438 97.8603C140.009 100.551 141.283 101.565 142.182 101.192Z" fill="#1FB4FF"/>
<path d="M109.955 141.69C110.059 141.919 110.239 142.105 110.465 142.214C110.691 142.324 110.948 142.35 111.191 142.289C111.435 142.228 111.649 142.083 111.797 141.88C111.945 141.677 112.017 141.428 112.001 141.177C111.106 135.539 105.991 132.323 103.166 127.722C97.2838 118.108 105.084 107.087 115.058 104.524C123.245 102.346 132.452 105.293 134.626 115.161C136.544 123.621 132.708 129.772 130.022 137.461C129.511 139.127 131.185 139.64 131.94 138.102C135.393 131.578 138.718 123.749 137.695 116.314C135.904 104.396 125.93 99.1419 114.803 101.833C105.084 104.268 96.7723 112.726 98.4347 123.365C99.853 132.079 107.474 134.486 109.955 141.69Z" fill="#1FB4FF"/>
<path d="M112.78 151.429C115.723 152.478 118.866 152.839 121.969 152.483C125.072 152.128 128.052 151.066 130.683 149.379C131.834 148.482 131.322 146.56 129.66 147.201C122.883 149.635 120.197 150.276 113.545 149.379C112.385 149.251 111.618 150.929 112.78 151.429Z" fill="#1FB4FF"/>
<path d="M77.6004 142.075C76.7099 143.24 77.6004 144.766 80.1579 142.972C83.7103 140.756 87.0883 138.271 90.2623 135.539C90.4323 135.39 90.5424 135.184 90.5722 134.96C90.602 134.736 90.5493 134.509 90.4241 134.32C90.2989 134.132 90.1097 133.996 89.8917 133.937C89.6737 133.878 89.4418 133.901 89.2393 134.001C85.1295 136.343 81.2347 139.045 77.6004 142.075Z" fill="#1FB4FF"/>
<path d="M87.2054 107.856C87.4165 107.911 87.6403 107.89 87.8376 107.797C88.0349 107.703 88.1931 107.543 88.2846 107.345C88.376 107.146 88.3949 106.922 88.3379 106.711C88.2808 106.5 88.1516 106.315 87.9726 106.19C82.8577 102.866 77.5156 99.9076 71.9859 97.3361C71.7561 97.2639 71.5081 97.276 71.2863 97.3704C71.0646 97.4648 70.8837 97.6352 70.776 97.8511C70.6682 98.067 70.6408 98.3143 70.6984 98.5487C70.7561 98.7831 70.8952 98.9892 71.0908 99.1302C76.2497 102.417 81.6347 105.333 87.2054 107.856Z" fill="#1FB4FF"/>
<path d="M112.78 146.557C117.026 147.892 127.744 145.788 130.046 143.994C131.58 142.713 130.173 140.919 128.255 141.688C123.483 143.503 118.392 144.332 113.292 144.122C110.978 143.994 110.606 145.882 112.78 146.557Z" fill="#1FB4FF"/>
<path d="M123.128 139.127C122.965 132.373 123.565 125.623 124.919 119.005C124.951 118.791 124.901 118.574 124.78 118.395C124.659 118.217 124.475 118.091 124.265 118.042C124.055 117.993 123.835 118.026 123.648 118.133C123.461 118.241 123.321 118.415 123.256 118.621C121.574 125.316 120.97 132.238 121.466 139.125C121.46 139.238 121.477 139.351 121.516 139.457C121.555 139.563 121.615 139.661 121.692 139.743C121.77 139.825 121.864 139.891 121.967 139.936C122.071 139.981 122.183 140.004 122.296 140.004C122.409 140.004 122.521 139.981 122.625 139.937C122.729 139.892 122.822 139.827 122.9 139.745C122.978 139.663 123.039 139.566 123.078 139.459C123.117 139.353 123.134 139.24 123.128 139.127Z" fill="#1FB4FF"/>
<path d="M120.06 117.854C116.679 118.759 113.198 119.228 109.699 119.252C109.506 119.254 109.317 119.307 109.152 119.407C108.987 119.507 108.851 119.649 108.76 119.819C108.668 119.99 108.624 120.182 108.632 120.375C108.64 120.568 108.699 120.756 108.804 120.918C111.426 126.857 113.732 132.932 115.712 139.115C116.095 140.28 117.246 140.012 116.991 138.859C115.795 132.809 113.907 126.918 111.362 121.303C114.543 121.152 117.687 120.548 120.699 119.508C120.894 119.407 121.044 119.237 121.121 119.032C121.199 118.826 121.198 118.599 121.119 118.394C121.04 118.189 120.888 118.021 120.692 117.921C120.497 117.822 120.272 117.798 120.06 117.854Z" fill="#1FB4FF"/>
<path d="M27.3442 207.179C27.6601 213.31 26.6975 219.439 24.5178 225.176C22.3381 230.912 18.9891 236.131 14.6846 240.498C12.255 242.933 14.301 243.446 16.7306 242.549C28.2394 238.063 38.5856 224.864 41.5384 213.072C42.0499 211.021 40.2596 211.15 40.0039 212.431C38.4341 218.228 35.6952 223.642 31.9563 228.337C28.2173 233.032 23.5577 236.909 18.2651 239.729C26.0936 230.9 30.1803 219.361 29.6576 207.561C29.5297 205.639 29.274 205.511 26.9722 205.127C7.27716 202.051 -0.0117164 173.727 31.0642 162.322C58.8154 152.196 80.1729 171.036 75.3113 190.005C71.7308 204.229 56.6416 206.408 44.2354 206.408C42.573 206.408 42.7009 208.458 44.3632 208.458C57.1507 208.715 71.7308 206.921 76.4622 194.106C86.6922 166.807 58.0482 151.933 33.8775 158.734C-5.26622 170.013 4.58016 206.282 27.3442 207.179Z" fill="#1FB4FF"/>
</svg>
