<svg width="181" height="24" viewBox="0 0 181 24" fill="none" xmlns="http://www.w3.org/2000/svg">
<path d="M177.066 24C175.929 24 174.967 23.6129 174.18 22.8387C173.393 22.0645 173 21.1183 173 20C173 18.8817 173.393 17.9355 174.18 17.1613C174.967 16.3871 175.929 16 177.066 16C178.158 16 179.077 16.3871 179.82 17.1613C180.607 17.9355 181 18.8817 181 20C181 21.1183 180.607 22.0645 179.82 22.8387C179.077 23.6129 178.158 24 177.066 24Z" fill="#5D66EA"/>
<path d="M165.915 13.8241C165.915 14.4043 165.881 15.0179 165.814 15.6651H151.153C151.265 17.4726 151.878 18.8896 152.994 19.9161C154.132 20.9203 155.504 21.4224 157.111 21.4224C158.428 21.4224 159.521 21.1212 160.392 20.5186C161.284 19.8938 161.909 19.0682 162.266 18.0417H165.546C165.055 19.8046 164.074 21.2439 162.601 22.3597C161.128 23.4531 159.298 23.9998 157.111 23.9998C155.371 23.9998 153.809 23.6093 152.425 22.8283C151.064 22.0472 149.993 20.9426 149.212 19.5145C148.431 18.064 148.04 16.3903 148.04 14.4935C148.04 12.5967 148.419 10.9343 149.178 9.50609C149.937 8.07791 150.997 6.98447 152.358 6.22575C153.742 5.44472 155.326 5.0542 157.111 5.0542C158.852 5.0542 160.392 5.43356 161.73 6.19228C163.069 6.95099 164.096 7.99981 164.81 9.33872C165.546 10.6553 165.915 12.1504 165.915 13.8241ZM162.768 13.1881C162.768 12.0277 162.511 11.0347 161.998 10.209C161.485 9.36104 160.782 8.72505 159.889 8.30106C159.019 7.85476 158.048 7.63161 156.977 7.63161C155.438 7.63161 154.121 8.12254 153.027 9.10441C151.956 10.0863 151.343 11.4475 151.186 13.1881H162.768Z" fill="#282732"/>
<path d="M127.708 14.4935C127.708 12.5967 128.087 10.9454 128.846 9.53956C129.605 8.11138 130.654 7.00678 131.993 6.22575C133.354 5.44472 134.905 5.0542 136.645 5.0542C138.899 5.0542 140.751 5.60092 142.202 6.69437C143.675 7.78781 144.645 9.30525 145.114 11.2467H141.834C141.521 10.1309 140.907 9.24946 139.993 8.60232C139.1 7.95518 137.984 7.63161 136.645 7.63161C134.905 7.63161 133.499 8.23412 132.428 9.43914C131.357 10.6218 130.821 12.3066 130.821 14.4935C130.821 16.7027 131.357 18.4099 132.428 19.6149C133.499 20.8199 134.905 21.4224 136.645 21.4224C137.984 21.4224 139.1 21.11 139.993 20.4852C140.885 19.8603 141.499 18.9677 141.834 17.8073H145.114C144.623 19.6818 143.641 21.1881 142.168 22.3262C140.695 23.4419 138.854 23.9998 136.645 23.9998C134.905 23.9998 133.354 23.6093 131.993 22.8283C130.654 22.0472 129.605 20.9426 128.846 19.5145C128.087 18.0863 127.708 16.4126 127.708 14.4935Z" fill="#282732"/>
<path d="M105.088 14.4601C105.088 12.5856 105.467 10.9454 106.226 9.53956C106.985 8.11138 108.022 7.00678 109.339 6.22575C110.678 5.44472 112.162 5.0542 113.791 5.0542C115.398 5.0542 116.792 5.40009 117.975 6.09186C119.158 6.78363 120.039 7.65392 120.619 8.70274V5.35545H123.699V23.6986H120.619V20.2843C120.017 21.3555 119.113 22.2481 117.908 22.9622C116.725 23.6539 115.342 23.9998 113.757 23.9998C112.128 23.9998 110.656 23.5981 109.339 22.7948C108.022 21.9914 106.985 20.8645 106.226 19.414C105.467 17.9636 105.088 16.3122 105.088 14.4601ZM120.619 14.4935C120.619 13.11 120.34 11.905 119.782 10.8785C119.225 9.85197 118.466 9.07094 117.506 8.53537C116.569 7.97749 115.531 7.69855 114.393 7.69855C113.255 7.69855 112.218 7.96634 111.28 8.5019C110.343 9.03747 109.596 9.8185 109.038 10.845C108.48 11.8715 108.201 13.0765 108.201 14.4601C108.201 15.8659 108.48 17.0933 109.038 18.1421C109.596 19.1686 110.343 19.9608 111.28 20.5186C112.218 21.0542 113.255 21.322 114.393 21.322C115.531 21.322 116.569 21.0542 117.506 20.5186C118.466 19.9608 119.225 19.1686 119.782 18.1421C120.34 17.0933 120.619 15.8771 120.619 14.4935Z" fill="#282732"/>
<path d="M98.1449 23.6987L92.5884 14.159H88.9064V23.6987H85.8604V0.368164H93.3917C95.1546 0.368164 96.6386 0.669419 97.8436 1.27193C99.071 1.87444 99.9859 2.68895 100.588 3.71545C101.191 4.74195 101.492 5.9135 101.492 7.23009C101.492 8.83679 101.024 10.2538 100.086 11.4811C99.1714 12.7085 97.7878 13.523 95.9357 13.9247L101.793 23.6987H98.1449ZM88.9064 11.7155H93.3917C95.0431 11.7155 96.2816 11.3138 97.1072 10.5104C97.9329 9.68477 98.3457 8.59132 98.3457 7.23009C98.3457 5.84655 97.9329 4.77542 97.1072 4.0167C96.3039 3.25798 95.0654 2.87863 93.3917 2.87863H88.9064V11.7155Z" fill="#282732"/>
<path d="M61.2012 14.2596C61.2012 12.2735 61.5359 10.5553 62.2054 9.10477C62.8971 7.63197 63.8344 6.5162 65.0171 5.75749C66.1998 4.97645 67.5275 4.58594 69.0003 4.58594C70.2277 4.58594 71.2876 4.84256 72.1803 5.35581C73.0729 5.84675 73.7535 6.52736 74.2221 7.39766V4.82025H81.6196V23.6989H74.2221V21.1215C73.7535 21.9918 73.0729 22.6836 72.1803 23.1968C71.2876 23.6878 70.2277 23.9332 69.0003 23.9332C67.5275 23.9332 66.1998 23.5539 65.0171 22.7952C63.8344 22.0141 62.8971 20.8984 62.2054 19.4479C61.5359 17.9751 61.2012 16.2456 61.2012 14.2596ZM74.2221 14.2596C74.2221 13.2554 73.9655 12.4744 73.4522 11.9165C72.939 11.3586 72.2807 11.0797 71.4773 11.0797C70.674 11.0797 70.0157 11.3586 69.5024 11.9165C68.9892 12.4744 68.7326 13.2554 68.7326 14.2596C68.7326 15.2638 68.9892 16.0448 69.5024 16.6027C70.0157 17.1606 70.674 17.4395 71.4773 17.4395C72.2807 17.4395 72.939 17.1606 73.4522 16.6027C73.9655 16.0448 74.2221 15.2638 74.2221 14.2596Z" fill="#282732"/>
<path d="M59.3756 17.3722V23.6986H56.5639C51.3867 23.6986 48.7982 21.1211 48.7982 15.9663V11.0124H46.4551V4.81988H48.7982V0.267578H56.2291V4.81988H59.3086V11.0124H56.2291V16.1002C56.2291 16.5465 56.3296 16.8701 56.5304 17.0709C56.7536 17.2718 57.1106 17.3722 57.6015 17.3722H59.3756Z" fill="#282732"/>
<path d="M23.8721 14.2596C23.8721 12.2735 24.2068 10.5553 24.8763 9.10477C25.568 7.63197 26.5053 6.5162 27.688 5.75749C28.8707 4.97645 30.1984 4.58594 31.6712 4.58594C32.8986 4.58594 33.9586 4.84256 34.8512 5.35581C35.7438 5.84675 36.4244 6.52736 36.893 7.39766V4.82025H44.2905V23.6989H36.893V21.1215C36.4244 21.9918 35.7438 22.6836 34.8512 23.1968C33.9586 23.6878 32.8986 23.9332 31.6712 23.9332C30.1984 23.9332 28.8707 23.5539 27.688 22.7952C26.5053 22.0141 25.568 20.8984 24.8763 19.4479C24.2068 17.9751 23.8721 16.2456 23.8721 14.2596ZM36.893 14.2596C36.893 13.2554 36.6364 12.4744 36.1231 11.9165C35.6099 11.3586 34.9516 11.0797 34.1482 11.0797C33.3449 11.0797 32.6866 11.3586 32.1733 11.9165C31.6601 12.4744 31.4035 13.2554 31.4035 14.2596C31.4035 15.2638 31.6601 16.0448 32.1733 16.6027C32.6866 17.1606 33.3449 17.4395 34.1482 17.4395C34.9516 17.4395 35.6099 17.1606 36.1231 16.6027C36.6364 16.0448 36.893 15.2638 36.893 14.2596Z" fill="#282732"/>
<path d="M9.87449 0C12.3515 0 14.5161 0.502091 16.3682 1.50627C18.2427 2.51046 19.682 3.90516 20.6862 5.69038C21.6904 7.4756 22.1925 9.50628 22.1925 11.7824C22.1925 14.0363 21.6904 16.067 20.6862 17.8745C19.682 19.682 18.2427 21.1102 16.3682 22.159C14.5161 23.1855 12.3515 23.6988 9.87449 23.6988H0V0H9.87449ZM9.20503 17.0711C10.8787 17.0711 12.2064 16.6137 13.1883 15.6988C14.1702 14.7838 14.6611 13.4784 14.6611 11.7824C14.6611 10.0865 14.1702 8.78104 13.1883 7.86611C12.2064 6.95119 10.8787 6.49373 9.20503 6.49373H7.43097V17.0711H9.20503Z" fill="#282732"/>
</svg>
