<svg width="350" height="399" viewBox="0 0 350 399" fill="none" xmlns="http://www.w3.org/2000/svg">
<path d="M254.611 262.801C256.475 262.702 258.275 262.086 259.81 261.022C261.345 259.958 262.556 258.488 263.306 256.775C263.946 254.597 261.644 253.828 260.875 256.263C260.232 257.596 259.26 258.742 258.053 259.595C256.845 260.447 255.44 260.977 253.972 261.135C253.46 261.263 252.437 262.843 254.611 262.801Z" fill="#282732"/>
<path d="M258.447 244.345C257.693 241.521 253.841 244.089 256.145 246.78C256.784 247.549 259.23 247.288 258.447 244.345Z" fill="#282732"/>
<path d="M252.949 232.427C251.156 232.933 251.158 234.99 253.458 234.99C256.029 234.8 258.61 235.198 261.005 236.155C261.17 236.21 261.348 236.208 261.512 236.147C261.675 236.087 261.813 235.972 261.902 235.823C261.991 235.673 262.027 235.497 262.003 235.325C261.979 235.152 261.896 234.993 261.77 234.873C260.562 233.852 259.149 233.105 257.626 232.683C256.104 232.26 254.508 232.173 252.949 232.427Z" fill="#282732"/>
<path d="M246.043 238.825C244.334 237.857 242.321 237.582 240.416 238.057C239.254 238.441 239.393 239.722 240.544 239.851C242.046 239.903 243.524 240.251 244.892 240.876C246.424 241.526 246.801 239.485 246.043 238.825Z" fill="#282732"/>
<path d="M248.086 247.679C247.723 250.528 247.681 253.409 247.959 256.268C248.472 259.599 256.015 257.165 254.866 255.37C254.227 254.345 251.669 256.535 250.005 255.755C249.561 253.087 249.39 250.381 249.495 247.679C249.495 247.492 249.421 247.312 249.289 247.18C249.157 247.048 248.978 246.973 248.791 246.973C248.604 246.973 248.425 247.048 248.293 247.18C248.161 247.312 248.086 247.492 248.086 247.679Z" fill="#282732"/>
<path d="M245.529 248.574C247.442 247.409 245.659 243.448 243.997 244.729C242.716 245.498 243.22 249.974 245.529 248.574Z" fill="#282732"/>
<path d="M232.614 258.956C234.404 264.851 238.751 272.54 243.739 276.129C246.04 277.795 247.191 276.129 244.901 273.95C239.985 269.799 236.274 264.397 234.16 258.313C234.075 258.108 233.911 257.945 233.706 257.86C233.501 257.775 233.271 257.775 233.066 257.86C232.861 257.946 232.698 258.109 232.613 258.315C232.528 258.52 232.528 258.751 232.614 258.956Z" fill="#282732"/>
<path d="M274.175 265.108C274.801 264.579 274.303 263.57 273.536 263.943C266.375 267.018 261.388 278.167 264.84 286.115C265.352 287.14 266.759 286.756 266.503 285.6C264.585 275.744 267.112 271.077 274.175 265.108Z" fill="#282732"/>
<path d="M231.463 267.543C232.467 270.746 234.106 273.714 236.281 276.269C238.456 278.823 241.124 280.911 244.123 282.408C245.785 283.177 247.448 281.895 244.89 280.23C239.627 277.208 235.462 272.584 232.998 267.03C232.358 266.005 231.18 266.396 231.463 267.543Z" fill="#282732"/>
<path d="M236.961 258.7C239.839 264.663 244.668 269.457 250.644 272.284C258.956 276.001 260.621 270.234 267.782 265.492C268.549 264.98 268.163 263.954 267.268 264.211C260.874 265.749 260.235 274.206 251.283 269.849C246.062 266.941 241.662 262.752 238.496 257.675C238.347 257.505 238.142 257.394 237.918 257.365C237.695 257.335 237.468 257.388 237.28 257.513C237.092 257.638 236.956 257.828 236.898 258.047C236.839 258.265 236.862 258.497 236.961 258.7Z" fill="#282732"/>
<path d="M248.087 292.415C248.728 293.438 250.391 292.543 249.877 291.518C247.447 284.98 237.729 283.571 234.276 277.804C233.637 276.779 232.486 277.804 232.881 278.829C236.45 285.612 243.75 285.477 248.087 292.415Z" fill="#282732"/>
<path d="M236.066 238.706C236.536 244.988 237.781 251.188 239.775 257.162C240.03 258.059 241.693 257.675 241.437 256.65C238.74 247.99 237.657 238.907 238.24 229.855C239.145 230.184 240.108 230.322 241.069 230.258C242.03 230.195 242.967 229.932 243.821 229.486C244.675 229.04 245.427 228.421 246.029 227.668C246.631 226.915 247.071 226.045 247.319 225.113C250.774 230.239 261.004 229.727 264.201 225.113C263.306 232.161 271.49 244.592 273.152 242.285C273.92 241.12 274.687 239.85 276.093 239.466C281.336 237.8 282.231 247.796 279.035 249.205C277.64 249.846 274.815 248.04 276.477 252.537C278.685 258.408 280.563 264.397 282.104 270.478C282.359 271.632 283.766 271.119 283.766 269.966C282.64 263.75 280.928 257.656 278.651 251.766C279.84 251.614 280.943 251.062 281.779 250.201C282.615 249.34 283.135 248.22 283.254 247.024C284.75 246.48 286.086 245.569 287.14 244.374C288.195 243.179 288.933 241.739 289.29 240.184C289.646 238.63 289.608 237.011 289.18 235.474C288.751 233.938 287.946 232.534 286.837 231.39C293.743 224.47 292.464 213.062 281.848 213.191C282.506 211.092 282.516 208.842 281.875 206.738C281.234 204.634 279.972 202.773 278.257 201.401C276.541 200.028 274.451 199.208 272.262 199.048C270.072 198.888 267.885 199.395 265.989 200.504C262.153 190.124 246.424 193.199 246.04 202.426C236.066 194.224 223.149 207.039 230.821 216.907C222.128 217.047 221.361 237.809 236.066 238.706Z" fill="#282732"/>
<path d="M253.588 299.583C254.353 300.442 255.362 301.046 256.48 301.314C257.598 301.582 258.771 301.502 259.842 301.084C260.913 300.666 261.83 299.93 262.472 298.974C263.114 298.019 263.45 296.89 263.434 295.738C265.55 294.909 267.602 293.924 269.572 292.791C269.286 291.049 268.632 289.389 267.654 287.921C265.663 288.437 263.734 289.168 261.899 290.099C261.16 289.181 260.148 288.523 259.011 288.22C257.873 287.916 256.669 287.984 255.572 288.412C254.475 288.84 253.543 289.607 252.91 290.601C252.277 291.596 251.976 292.767 252.051 293.944C250.772 294.713 249.365 295.61 248.854 295.994C248.791 297.765 249.278 299.511 250.249 300.992C251.283 300.608 252.553 300.104 253.588 299.583ZM254.736 293.944C255.141 289.459 261.014 289.971 260.493 295.61C260.109 300.223 254.253 299.329 254.736 293.944Z" fill="#282732"/>
<path d="M225.583 342.9C225.199 336.492 224.944 321.368 226.606 315.73C226.862 314.704 228.14 314.448 228.001 316.627C227.571 325.339 227.656 334.069 228.257 342.772C237.913 342.46 247.578 342.931 257.159 344.181C253.064 333.417 247.31 299.967 246.671 295.61C246.031 291.253 237.336 288.303 232.721 283.818C221.979 287.662 207.016 299.711 195.379 316.114C199.659 325.465 203.166 335.152 205.865 345.078C212.392 343.986 218.975 343.258 225.583 342.9Z" fill="#282732"/>
<path d="M285.813 272.797C280.57 278.307 276.094 280.998 268.166 281.126C269.828 292.543 279.805 309.194 288.5 321.37C289.859 318.473 290.847 315.415 291.439 312.269C291.697 310.475 292.834 311.116 292.834 312.141C292.625 316.185 291.761 320.167 290.277 323.933C300.765 338.286 314.457 352.126 319.572 369.557C325.326 362.252 347.834 322.258 332.233 295.738C323.029 279.717 302.95 271.515 285.813 272.797Z" fill="#282732"/>
<path d="M304.612 388.644C313.694 388.772 317.911 388.772 325.584 388.772C329.55 378.905 333.642 359.554 335.049 343.533C326.862 370.07 314.458 382.628 304.612 388.644Z" fill="#282732"/>
<path d="M269.699 380.706C255.264 382.075 240.973 384.691 226.987 388.523C235.299 388.395 265.224 388.139 275.709 388.395C272.995 386.48 270.904 383.806 269.699 380.706Z" fill="#282732"/>
<path d="M267.666 377.502C269.203 377.269 268.944 374.939 267.41 375.195C230.417 380.398 224.272 384.839 208.455 386.216C206.281 386.344 204.502 388.651 207.432 388.651C216.897 388.651 232.498 383.781 242.728 381.859C251.67 380.065 258.717 378.889 267.666 377.502Z" fill="#282732"/>
<path d="M210.489 346.744C204.858 347.872 206.269 349.692 208.315 349.179C222.895 346.103 242.588 346.744 257.168 349.179C258.575 349.435 259.214 347.257 257.807 347C243.355 344.566 224.927 343.857 210.489 346.744Z" fill="#282732"/>
<path d="M300.52 343.412C301.155 343.932 302.439 343.156 301.915 342.247C289.832 327.838 279.087 312.352 269.817 295.983C269.305 295.086 267.771 295.983 268.154 296.88C273.025 306.628 292.144 336.569 300.52 343.412Z" fill="#282732"/>
<path d="M316.377 370.582C316.888 369.3 315.214 368.275 314.587 369.417C310.75 376.209 306.147 383.001 298.73 386.333C291.186 389.793 282.871 388.768 277.373 382.232C265.48 368.135 256.785 323.283 253.586 302.902C253.33 301.621 251.54 302.134 251.795 303.415C254.481 322.894 263.188 368.776 275.838 383.77C285.527 395.341 305.973 392.479 316.377 370.582Z" fill="#282732"/>
<path d="M125.704 319.443C126.599 318.935 125.959 317.906 124.936 318.045C120.333 318.942 117.264 320.224 115.855 324.84C114.434 329.044 114.082 333.536 114.832 337.911C115.088 339.076 116.75 338.808 116.878 337.655C117.006 332.657 116.239 331.632 117.901 326.121C119.308 320.984 121.619 321.773 125.704 319.443Z" fill="#282732"/>
<path d="M127.365 299.839C127.225 302.618 127.311 305.403 127.621 308.168C127.749 309.194 129.539 309.065 129.667 308.168C129.725 305.386 129.597 302.603 129.284 299.839C129.153 298.939 127.386 298.939 127.365 299.839Z" fill="#282732"/>
<path d="M137.085 298.814C140.5 296.95 145.92 293.303 148.21 288.816C148.849 287.534 148.724 287.15 147.826 285.996C146.696 284.715 145.36 283.633 143.874 282.792C142.341 282.024 142.211 282.536 141.063 283.305C133.516 288.559 121.998 287.534 114.076 283.433C113.437 283.049 111.647 284.074 113.309 284.971C123.158 289.971 133.769 290.868 142.851 284.458C144.314 285.388 145.648 286.509 146.817 287.79C143.788 292.104 139.688 295.55 134.922 297.788C133.132 295.61 131.342 293.559 129.552 291.381C126.852 288.377 125.746 293.783 121.365 298.173C116.933 295.979 112.698 293.406 108.706 290.484C109.984 289.2 111.135 287.921 112.414 286.637C113.181 285.996 112.158 284.715 111.252 285.239C109.903 286.218 108.661 287.334 107.543 288.571C107.085 289.1 106.855 289.789 106.902 290.488C106.95 291.187 107.273 291.838 107.799 292.299C109.845 294.221 120.203 300.885 121.867 300.116C124.681 298.718 126.215 294.99 128.133 292.683C129.924 294.477 132.353 298.066 133.76 299.475C134.655 300.479 136.18 299.308 137.085 298.814Z" fill="#282732"/>
<path d="M150.641 247.293C151.105 245.321 151.276 243.292 151.15 241.27C150.895 239.091 148.851 238.963 148.976 241.398C149.232 244.602 148.084 248.318 148.467 249.087C149.362 251.268 152.559 247.689 154.091 249.986C156.265 253.574 151.534 260.366 148.593 258.572C147.828 258.06 147.198 258.444 146.675 260.11C145.893 262.354 144.864 264.503 143.606 266.518C136.7 276.641 122.762 279.204 115.09 270.479C112.384 266.968 110.623 262.82 109.975 258.432C109.955 258.144 109.86 257.865 109.699 257.625C109.539 257.384 109.319 257.189 109.061 257.06C108.803 256.931 108.515 256.871 108.227 256.887C107.939 256.903 107.659 256.994 107.417 257.151C104.732 259.201 102.302 256.126 102.046 252.281C101.663 247.025 104.86 246.64 107.161 248.434C107.304 248.551 107.481 248.619 107.665 248.63C107.849 248.641 108.032 248.593 108.187 248.494C108.343 248.395 108.463 248.249 108.531 248.077C108.6 247.905 108.613 247.717 108.568 247.537C108.44 246.372 107.801 239.848 107.801 238.439C107.673 237.157 106.138 237.67 106.138 238.823C106.266 241.13 106.394 243.565 106.65 245.743C105.944 245.4 105.166 245.235 104.383 245.262C103.599 245.289 102.834 245.507 102.154 245.897C101.473 246.287 100.898 246.838 100.478 247.501C100.059 248.165 99.8067 248.921 99.7446 249.704C98.7216 256.627 103.581 262.009 108.056 259.446C109.335 265.085 111.509 270.851 116.243 274.311C115.985 276.618 115.859 278.925 115.603 281.232C115.476 283.282 116.882 283.538 117.394 282.513C117.739 280.178 117.953 277.824 118.033 275.465C121.167 277.101 124.681 277.869 128.21 277.689C131.74 277.509 135.157 276.387 138.109 274.44C138.237 276.746 138.109 279.181 138.365 281.488C138.368 281.634 138.401 281.777 138.462 281.91C138.524 282.042 138.612 282.16 138.722 282.255C138.832 282.351 138.961 282.422 139.1 282.465C139.239 282.507 139.386 282.52 139.531 282.501C139.675 282.483 139.814 282.435 139.939 282.36C140.063 282.284 140.17 282.183 140.253 282.063C140.337 281.944 140.394 281.808 140.421 281.664C140.448 281.521 140.445 281.373 140.411 281.232C140.028 277.387 140.283 274.952 140.155 273.03C144.027 269.953 146.845 265.742 148.214 260.984C148.988 261.169 149.795 261.172 150.571 260.994C151.347 260.817 152.072 260.462 152.689 259.959C158.697 255.881 158.183 244.986 150.641 247.293Z" fill="#282732"/>
<path d="M118.798 236.015C117.505 235.99 116.22 236.24 115.03 236.748C113.839 237.256 112.769 238.011 111.891 238.963C111.124 239.731 111.635 241.397 113.17 240.629C114.822 239.44 116.77 238.73 118.798 238.578C121.1 238.322 120.726 236.153 118.798 236.015Z" fill="#282732"/>
<path d="M149.872 316.37C149.513 313.255 148.344 310.29 146.481 307.771C144.618 305.252 142.127 303.268 139.258 302.017C137.863 301.505 137.724 302.914 138.747 303.415C145.268 306.875 147.826 313.539 148.084 320.59C148.337 326.356 145.652 335.327 152.429 338.531C153.592 339.043 154.478 337.133 153.325 336.608C147.57 333.929 151.225 325.094 149.872 316.37Z" fill="#282732"/>
<path d="M120.458 304.196C121.084 303.415 120.331 302.402 119.435 303.031C114.467 307.293 110.827 312.899 108.95 319.178C108.055 322.512 108.31 325.972 107.543 329.176C106.648 332.892 103.451 334.302 100.51 336.352C99.487 336.993 100.382 338.787 101.533 338.274C104.4 337.1 106.85 335.091 108.566 332.507C111.251 327.894 108.566 322.127 114.065 312.514C115.986 309.585 118.123 306.804 120.458 304.196Z" fill="#282732"/>
<path d="M112.786 332.007C113.225 328.046 112.913 323.931 115.087 320.343C116.066 318.861 117.348 317.603 118.847 316.653C120.346 315.704 122.029 315.083 123.785 314.832C125.32 314.576 125.18 313.038 123.785 313.038C121.758 313.105 119.774 313.651 117.997 314.631C116.219 315.61 114.697 316.997 113.555 318.677C111.349 322.701 110.497 327.331 111.125 331.878C111.123 332.776 112.672 333.032 112.786 332.007Z" fill="#282732"/>
<path d="M128.398 330.86C127.933 334.199 128.654 383.789 128.782 386.48C128.782 387.889 131.084 387.761 131.084 386.352C131.084 372.139 130.444 346.495 130.188 330.989C130.051 330.213 128.531 329.828 128.398 330.86Z" fill="#282732"/>
<path d="M142.072 354.433C140.605 353.88 139.299 352.97 138.272 351.784C137.245 350.598 136.529 349.174 136.189 347.641C134.783 340.849 141.816 334.314 138.235 327.265C137.609 325.947 136.571 324.87 135.278 324.197C133.985 323.524 132.508 323.293 131.072 323.537C130.885 323.537 130.707 323.612 130.575 323.744C130.443 323.876 130.369 324.055 130.369 324.242C130.369 324.429 130.443 324.608 130.575 324.741C130.707 324.873 130.885 324.947 131.072 324.947C131.902 324.978 132.716 325.178 133.467 325.534C134.217 325.89 134.888 326.395 135.438 327.018C135.988 327.641 136.406 328.37 136.667 329.16C136.928 329.949 137.027 330.784 136.957 331.613C136.957 335.329 134.911 338.789 134.143 342.378C133.363 345.199 133.665 348.211 134.991 350.82C136.316 353.43 138.569 355.447 141.304 356.474C142.711 357.124 143.473 354.964 142.072 354.433Z" fill="#282732"/>
<path d="M99.4862 339.44C99.3514 338.414 99.4862 334.954 97.696 335.479C96.1269 335.769 94.5864 336.198 93.0925 336.76C91.0465 337.657 90.0235 339.964 92.8367 339.195C94.1155 338.81 95.5221 338.426 96.7892 338.03C97.4405 346.335 100.761 354.204 106.252 360.458C98.7605 366.872 90.6621 372.538 82.0719 377.374C79.6423 378.784 80.2817 380.962 82.3277 379.809C91.622 374.948 100.26 368.919 108.033 361.868C108.417 361.484 108.928 360.971 108.417 360.202C103.834 353.023 100.581 347.776 99.4862 339.44Z" fill="#282732"/>
<path d="M208.315 368.019C206.899 354.563 197.318 328.29 191.947 316.626C183.761 299.07 170.846 292.662 152.687 288.687C152.45 288.636 152.201 288.681 151.997 288.813C151.793 288.946 151.649 289.154 151.598 289.392C151.547 289.63 151.592 289.879 151.724 290.084C151.856 290.288 152.064 290.432 152.301 290.484C168.032 295.994 179.669 298.044 188.239 314.319C194.377 325.983 207.932 361.74 206.013 375.452C204.479 386.088 198.853 385.575 191.436 386.088C178.134 386.985 155.373 369.172 145.908 360.458C152.301 355.971 156.396 345.718 157.547 338.542C167.727 341.342 177.556 345.298 186.842 350.332C188.123 350.973 189.146 349.307 187.867 348.666C181.953 345.342 175.797 342.472 169.451 340.08C168.898 337.022 167.578 334.155 165.614 331.75C164.591 330.853 164.08 332.006 164.463 332.647C165.712 334.678 166.66 336.879 167.277 339.183C164.247 338.021 161.124 337.12 157.942 336.492C155.512 336.107 155.512 336.492 155.129 338.542C150.906 358.92 141.316 358.405 144.001 361.355C153.466 371.992 176.228 388.01 191.064 388.267C204.99 388.644 209.84 382.502 208.315 368.019Z" fill="#282732"/>
<path d="M143.35 327.265C143.191 325.392 142.491 323.607 141.334 322.127C140.178 320.647 138.616 319.537 136.84 318.933C134.65 318.508 132.419 318.336 130.191 318.421C129.165 318.421 129.165 319.702 130.063 319.961C133.771 320.986 136.84 319.574 139.525 323.421C142.467 327.522 140.804 331.494 141.316 333.929C141.385 334.121 141.509 334.288 141.672 334.411C141.835 334.533 142.03 334.606 142.233 334.619C142.436 334.633 142.639 334.587 142.817 334.487C142.994 334.387 143.139 334.238 143.234 334.057C143.665 331.817 143.704 329.519 143.35 327.265Z" fill="#282732"/>
<path d="M126.854 322.78C125.38 323.249 124.023 324.029 122.876 325.068C121.728 326.107 120.817 327.381 120.202 328.803C114.831 340.08 129.539 348.41 108.31 356.229C108.049 356.307 107.829 356.483 107.694 356.719C107.56 356.956 107.522 357.235 107.587 357.5C107.653 357.764 107.818 357.992 108.048 358.138C108.278 358.283 108.555 358.334 108.821 358.28C112.207 357.481 115.36 355.9 118.028 353.664C129.923 343.668 112.913 334.057 127.493 324.19C128.261 323.549 127.879 322.538 126.854 322.78Z" fill="#282732"/>
<path d="M115.727 247.421C117.373 248.851 119.447 244.345 117.264 243.192C115.344 242.167 114.565 246.41 115.727 247.421Z" fill="#282732"/>
<path d="M141.56 318.164C144.854 321.277 144.629 325.853 144.757 330.085C144.757 331.11 146.291 330.982 146.547 330.085C147.186 325.471 146.675 319.958 143.094 316.498C139.258 312.91 133.376 312.397 128.516 313.166C128.406 313.171 128.297 313.2 128.198 313.25C128.099 313.3 128.012 313.37 127.942 313.457C127.873 313.543 127.822 313.643 127.794 313.751C127.765 313.858 127.76 313.97 127.778 314.08C127.797 314.189 127.838 314.294 127.899 314.386C127.961 314.479 128.041 314.557 128.135 314.616C128.229 314.675 128.334 314.713 128.444 314.729C128.554 314.744 128.666 314.735 128.772 314.704C133.12 314.704 138.072 314.87 141.56 318.164Z" fill="#282732"/>
<path d="M97.8244 244.217C98.9729 245.244 100.254 243.448 99.231 242.423C91.8143 234.99 91.8143 223.711 96.9293 214.996C111.635 189.62 155.373 194.749 164.452 220.891C166.026 225.071 166.19 229.652 164.92 233.933C163.65 238.215 161.015 241.962 157.419 244.601C156.652 245.242 157.291 246.652 158.314 246.139C168.544 241.013 170.334 227.557 166.114 217.946C153.583 189.366 104.858 187.829 92.9651 217.946C89.3846 226.789 90.5239 237.693 97.8244 244.217Z" fill="#282732"/>
<path d="M101.788 236.528C109.579 237.399 119.182 231.915 123.018 225.251C123.135 225.063 123.176 224.839 123.134 224.622C123.092 224.405 122.969 224.212 122.791 224.082C122.612 223.952 122.392 223.895 122.173 223.921C121.954 223.948 121.753 224.057 121.611 224.226C115.857 231.274 110.612 233.581 101.788 234.606C101.561 234.643 101.354 234.76 101.205 234.936C101.056 235.112 100.974 235.336 100.974 235.567C100.974 235.798 101.056 236.021 101.205 236.197C101.354 236.374 101.561 236.491 101.788 236.528Z" fill="#282732"/>
<path d="M126.342 256.265C127.24 255.627 127.237 254.727 126.342 254.343C125.703 254.087 122.25 254.984 121.995 254.343C121.483 253.061 123.401 247.549 123.785 244.858C124.041 242.935 123.145 242.935 122.25 244.473C121.355 246.011 118.53 253.83 119.818 256.137C121.099 258.059 125.068 257.167 126.342 256.265Z" fill="#282732"/>
<path d="M74.5488 309.963C82.3376 299.06 90.9191 294.584 103.707 290.612C104.985 290.227 104.602 288.177 103.323 288.561C88.6174 292.919 81.0704 297.019 72.1192 309.45C70.8404 310.988 73.2677 311.754 74.5488 309.963Z" fill="#282732"/>
<path d="M153.973 237.681C154.159 237.625 154.321 237.507 154.431 237.346C154.541 237.185 154.593 236.991 154.578 236.797C154.563 236.602 154.482 236.419 154.349 236.276C154.215 236.134 154.038 236.042 153.845 236.015C145.914 235.887 136.324 234.734 130.313 228.967C124.687 223.585 121.874 214.227 121.478 206.667C121.351 205.385 119.432 205.269 119.56 206.538C119.688 214.484 123.28 224.866 129.023 230.377C134.766 235.887 146.151 238.884 153.973 237.681Z" fill="#282732"/>
<path d="M122.89 263.57C127.035 265.776 132.225 264.467 133.631 260.494C133.887 259.597 132.864 258.828 132.225 259.597C128.505 263.954 125.319 262.16 123.39 262.288C122.378 262.16 122.132 263.167 122.89 263.57Z" fill="#282732"/>
<path d="M139.387 241.91C138.419 239.114 132.993 236.015 130.435 236.912C129.412 237.297 129.029 239.347 130.435 239.604C133.277 239.974 135.946 241.178 138.108 243.064C138.747 243.576 139.745 242.945 139.387 241.91Z" fill="#282732"/>
<path d="M131.202 248.318C133.636 247.833 133.504 243.32 131.586 243.832C129.793 244.217 129.158 248.725 131.202 248.318Z" fill="#282732"/>
<path d="M201.794 167.322C203.075 166.945 204.352 166.553 205.63 166.157C204.863 169.361 203.968 172.565 203.201 175.769C201.922 180.382 203.712 180.766 204.735 179.1C207.932 174.103 211.257 168.977 214.709 164.107C219.443 157.315 220.592 157.956 211.896 158.212C213.431 155.262 214.965 152.315 216.372 149.358C217.778 146.401 208.316 149.742 207.421 150.511C207.241 150.626 207.11 150.804 207.054 151.01C206.997 151.216 207.018 151.435 207.114 151.626C207.209 151.817 207.371 151.966 207.57 152.044C207.768 152.122 207.988 152.124 208.188 152.049C209.211 151.793 211.385 150.768 213.814 150.255L209.594 158.715C209.339 159.356 209.594 160.125 210.362 160.125C212.024 160.125 213.814 159.997 215.477 159.997C212.28 164.61 209.083 169.352 205.886 173.965L208.571 164.738C208.639 164.554 208.655 164.355 208.618 164.162C208.58 163.969 208.49 163.79 208.359 163.645C208.227 163.5 208.058 163.393 207.87 163.337C207.682 163.282 207.482 163.279 207.293 163.329C206.014 163.713 204.607 164.226 203.34 164.61C204.107 160.894 205.13 157.177 206.026 153.331C206.281 152.305 204.747 152.049 204.363 152.946C202.875 157.13 201.679 161.412 200.783 165.761C200.387 166.553 200.901 167.583 201.794 167.322Z" fill="#282732"/>
<path d="M47.3089 264.222C47.9506 264.735 48.9736 264.222 48.59 263.453C47.6925 260.89 46.9253 258.327 48.8457 255.636C49.6316 254.581 50.69 253.76 51.9068 253.263C53.1236 252.766 54.4527 252.611 55.751 252.814C55.9609 252.813 56.1648 252.744 56.3321 252.617C56.4993 252.49 56.6209 252.312 56.6786 252.11C56.7362 251.908 56.7269 251.692 56.6518 251.496C56.5768 251.299 56.4402 251.132 56.2625 251.02C52.682 249.354 45.6465 252.43 45.6465 259.224C45.5467 260.128 45.6436 261.043 45.9306 261.906C46.2175 262.769 46.6878 263.559 47.3089 264.222Z" fill="#282732"/>
<path d="M42.4496 279.333C42.4625 279.613 42.5827 279.877 42.7851 280.071C42.9875 280.265 43.2567 280.373 43.5365 280.373C43.8164 280.373 44.0855 280.265 44.288 280.071C44.4904 279.877 44.6105 279.613 44.6235 279.333C44.8997 276.972 44.7262 274.58 44.112 272.284C42.8332 267.799 38.6133 266.133 38.7412 261.648C38.8691 258.957 39.3806 256.266 39.5085 253.703C39.5058 253.493 39.425 253.292 39.282 253.139C39.139 252.987 38.9441 252.893 38.7357 252.877C38.5273 252.861 38.3205 252.924 38.1558 253.053C37.9912 253.182 37.8807 253.368 37.8461 253.574C37.3346 256.137 36.8231 258.7 36.5673 261.263C36.0558 266.902 39.8921 268.44 41.4266 272.028C42.4591 274.314 42.8142 276.85 42.4496 279.333Z" fill="#282732"/>
<path d="M43.8562 231.53L45.7743 250.368C45.9022 251.137 47.3088 251.137 47.4367 250.24C48.0761 245.499 46.4137 236.144 45.3907 231.134C45.2628 230.377 43.7283 230.633 43.8562 231.53Z" fill="#282732"/>
<path d="M56.7735 266.133C57.271 267.165 58.5637 266.389 58.3079 265.492C57.9243 263.314 57.0292 260.751 61.2491 260.751C64.7017 260.751 65.2016 263.826 65.0853 266.646C64.8296 271.9 60.354 276.385 60.354 281.127C60.3585 281.394 60.4599 281.651 60.6392 281.85C60.8186 282.049 61.0637 282.175 61.3291 282.207C61.5946 282.238 61.8624 282.172 62.0828 282.02C62.3032 281.869 62.4613 281.642 62.5278 281.383C63.8066 276.129 64.3181 276.641 66.1083 272.284C67.6551 269.038 67.8843 265.316 66.7477 261.904C64.1902 256.137 52.7047 257.724 56.7735 266.133Z" fill="#282732"/>
<path d="M51.0201 259.469C50.7732 261.368 51.1312 263.297 52.0431 264.979C52.147 265.131 52.3009 265.241 52.4776 265.289C52.6544 265.338 52.8427 265.323 53.0093 265.247C53.176 265.17 53.3104 265.037 53.3888 264.871C53.4672 264.705 53.4847 264.516 53.4381 264.339C52.9266 261.648 52.4151 258.444 54.9726 257.034C56.0982 256.344 57.3783 255.947 58.6961 255.88C60.014 255.813 61.3276 256.078 62.5172 256.65C63.4124 257.162 64.1796 255.753 63.5402 255.112C61.378 252.421 51.7874 253.446 51.0201 259.469Z" fill="#282732"/>
<path d="M-6.78457 237.938C-7.55182 238.066 -8.31907 238.194 -8.95844 238.322C-10.1093 234.734 -13.5619 231.018 -17.7818 232.555C-22.2574 234.221 -22.3876 239.091 -22.1296 241.27C-25.8496 241.654 -29.6765 242.167 -33.3849 242.551C-33.5951 242.601 -33.7807 242.724 -33.9086 242.898C-34.0365 243.072 -34.0983 243.287 -34.0829 243.503C-34.0675 243.718 -33.976 243.922 -33.8246 244.076C-33.6733 244.231 -33.4721 244.326 -33.257 244.345C-29.4208 244.089 -25.5845 243.833 -21.7459 243.704C-19.4953 255.236 -6.49627 252.106 -8.31907 240.629C-7.6797 240.501 -7.04032 240.501 -6.52882 240.372C-5.10824 250.345 6.46096 250.652 5.36356 238.835C6.38656 238.835 8.56043 238.322 7.53743 236.784C7.02593 236.015 5.87506 236.528 5.10781 236.656C3.06181 228.198 -6.40095 229.223 -6.78457 237.938ZM-20.0836 242.295C-20.4672 239.347 -19.8278 236.272 -17.9097 235.118C-14.7128 233.068 -11.5159 236.272 -10.4929 240.372C-8.37719 250.184 -18.842 252.262 -20.0836 242.295ZM0.760063 245.627C-3.93644 247.258 -7.09147 236.565 -2.94832 233.452C2.55496 229.135 6.15871 243.742 0.755405 245.627H0.760063Z" fill="#282732"/>
<path d="M2.80627 248.958C2.68537 247.677 1.41127 247.677 1.41127 248.958C1.66702 257.675 0.771894 271.643 -11.632 272.669C-16.4936 273.053 -21.7364 270.746 -25.9563 268.311C-26.7236 267.799 -27.7466 269.08 -26.8514 269.721C-22.6262 272.769 -17.601 274.507 -12.3992 274.719C-12.1435 276.769 -11.632 278.948 -11.3762 280.998C-10.7369 284.971 -9.20235 283.049 -9.4581 281.767C-9.72741 279.365 -10.0686 276.972 -10.4811 274.591C1.52752 272.669 3.75254 258.952 2.80627 248.958Z" fill="#282732"/>
<path d="M-0.902689 239.604C-1.17704 240.496 -0.774818 242.807 0.492307 242.295C1.13168 242.038 1.38744 241.398 1.25956 240.244C1.01544 238.825 -0.423739 238.057 -0.902689 239.604Z" fill="#282732"/>
<path d="M-57.1722 232.684C-57.3821 236.66 -56.4594 240.615 -54.5119 244.087C-52.5644 247.558 -49.6722 250.403 -46.1726 252.29C-45.5332 256.007 -43.1036 260.366 -38.5001 260.366C-37.125 267.215 -36.2277 274.152 -35.8147 281.127C-35.8236 281.25 -35.807 281.374 -35.766 281.49C-35.7251 281.607 -35.6606 281.713 -35.5766 281.804C-35.4926 281.894 -35.3909 281.966 -35.2779 282.016C-35.1648 282.065 -35.0429 282.091 -34.9196 282.091C-34.7963 282.091 -34.6743 282.065 -34.5613 282.016C-34.4482 281.966 -34.3465 281.894 -34.2626 281.804C-34.1786 281.713 -34.1141 281.607 -34.0731 281.49C-34.0321 281.374 -34.0156 281.25 -34.0245 281.127C-34.1568 274.454 -34.8843 267.806 -36.1983 261.263C-36.4541 260.11 -36.4541 257.801 -37.7328 257.929C-40.2903 258.185 -42.8478 256.007 -43.6151 251.906C-44.5102 247.549 -42.0806 243.961 -38.628 245.615C-38.1165 245.871 -37.7328 245.487 -37.4771 245.231C-32.49 240.361 -26.2241 231.39 -26.2241 221.52C-19.5746 224.47 -3.58788 225.624 3.701 223.186C3.1895 213.447 -6.14537 198.453 -26.8634 200.504C-50.0088 202.822 -56.9443 220.507 -57.1722 232.684Z" fill="#282732"/>
<path d="M-3.97108 228.711C-2.34559 228.214 -0.609448 228.214 1.01604 228.711C2.29479 229.095 2.16691 227.814 1.14391 226.917C0.266913 226.452 -0.693701 226.167 -1.68175 226.079C-2.66981 225.991 -3.66546 226.102 -4.61046 226.404C-6.52859 227.301 -5.87061 229.524 -3.97108 228.711Z" fill="#282732"/>
<path d="M79.0242 313.038C62.7841 312.791 35.928 312.141 21.2224 313.422C9.71134 314.448 6.8981 318.036 4.21272 328.034C0.376472 342.643 -5.76153 367.122 -7.80753 381.09C-23.2602 380.861 -38.7141 381.46 -54.1029 382.884C-59.8573 383.653 -60.2409 387.882 -58.4507 389.676C-57.5556 390.573 -56.4047 389.292 -57.0557 388.395C-57.1824 388.168 -57.263 387.918 -57.293 387.66C-57.323 387.401 -57.3017 387.139 -57.2304 386.889C-57.1591 386.639 -57.0392 386.406 -56.8775 386.202C-56.7159 385.999 -56.5157 385.829 -56.2884 385.704C-53.0916 383.525 -14.3408 383.141 -8.84216 383.141C-6.79616 383.141 -6.15678 382.884 -5.64528 380.706C-1.80903 362.637 3.18972 341.874 7.7816 324.83C9.1766 319.317 13.4081 316.37 20.1878 315.857C37.323 314.448 61.4937 315.216 79.652 315.473C86.0481 315.601 89.882 318.164 89.3728 325.343C88.7334 334.954 80.2914 364.431 77.2224 375.323C76.2496 379.596 74.746 383.729 72.7467 387.626C71.9795 388.907 73.8976 390.319 74.6649 389.024C76.9622 384.21 78.8032 379.19 80.1635 374.03C84.2555 359.678 90.0122 338.915 91.8025 326.228C92.593 317.523 87.7221 313.171 79.0242 313.038Z" fill="#282732"/>
<path d="M44.1115 343.797C43.593 344.561 44.4951 345.719 45.3902 345.078C46.289 344.344 47.4071 343.933 48.5662 343.909C49.7254 343.886 50.859 344.252 51.7863 344.95C53.4487 346.488 53.8323 349.691 50.7633 355.202C46.9247 362.252 41.6818 363.278 39.3708 360.458C36.5575 356.998 39.2429 349.948 41.9283 347.128C42.5677 346.36 41.4168 345.206 40.7658 345.847C35.1393 350.973 34.1163 358.536 37.3132 361.996C42.4282 367.635 49.8473 363.021 52.6582 356.998C54.3206 353.408 56.878 348.538 54.5763 344.822C54.1005 343.887 53.3975 343.086 52.532 342.495C51.6665 341.904 50.6665 341.54 49.6239 341.438C48.5814 341.336 47.53 341.498 46.5667 341.911C45.6033 342.323 44.759 342.971 44.1115 343.797Z" fill="#282732"/>
<path d="M59.4589 186.291C62.414 184.389 58.5638 179.368 55.5064 182.444C52.9373 184.881 57.0409 187.845 59.4589 186.291Z" fill="#282732"/>
<path d="M28.2556 188.467C31.5897 189.723 34.1379 186.032 32.0919 184.11C29.2786 181.419 24.431 187.027 28.2556 188.467Z" fill="#282732"/>
<path d="M42.4499 187.7C46.9278 189.098 48.5879 183.343 44.2401 182.318C41.4269 181.677 38.7438 186.54 42.4499 187.7Z" fill="#282732"/>
<path d="M212.279 210.511C211.654 209.223 210.107 209.614 210.233 210.767C210.747 214.728 218.673 215.381 220.977 211.024C225.067 203.078 212.142 200.772 210.491 205.898C209.852 207.82 211.512 207.692 212.409 206.282C213.558 204.36 221.102 205.117 219.059 209.742C218.164 212.049 213.328 212.678 212.279 210.511Z" fill="#3EC491"/>
<path d="M190.413 183.728C190.285 190.776 197.702 193.339 203.328 194.493C223.918 198.722 233.253 187.701 230.696 180.009C230.682 179.906 230.646 179.807 230.591 179.718C230.535 179.63 230.462 179.554 230.375 179.496C230.288 179.439 230.19 179.4 230.087 179.384C229.984 179.368 229.879 179.373 229.779 179.401C229.678 179.429 229.585 179.478 229.505 179.545C229.425 179.611 229.36 179.695 229.315 179.789C229.269 179.883 229.245 179.985 229.242 180.09C229.24 180.194 229.26 180.298 229.301 180.394C230.068 189.751 219.196 193.209 211.652 193.339C205.769 193.467 189.529 190.392 192.982 181.419C193.621 179.881 192.47 178.984 191.587 179.881C186.344 185.394 178.413 183.856 174.577 177.19C170.485 170.014 172.659 159.89 181.61 161.043C181.882 161.059 182.15 160.974 182.364 160.805C182.577 160.635 182.721 160.393 182.769 160.125C182.816 159.856 182.763 159.579 182.62 159.347C182.478 159.115 182.255 158.943 181.994 158.865C174.449 155.789 173.159 143.997 182.25 138.486C190.948 133.232 198.236 136.18 204.119 143.1C205.142 144.381 206.42 144.125 206.548 141.562C207.188 134.898 215.627 131.054 221.64 132.592C223.235 133.11 224.711 133.941 225.982 135.037C227.253 136.132 228.294 137.47 229.044 138.973C229.794 140.476 230.238 142.114 230.349 143.79C230.461 145.467 230.239 147.149 229.696 148.738C229.312 149.903 230.463 150.279 231.358 150.022C239.287 147.97 247.726 156.686 248.494 164.247C249.772 176.549 238.775 176.934 232.126 175.524C230.847 175.268 231.103 176.689 232.126 177.062C241.716 180.266 251.69 175.78 250.54 164.247C249.772 155.789 240.949 146.56 231.998 147.97C232.62 145.167 232.434 142.244 231.46 139.544C230.486 136.843 228.766 134.476 226.499 132.72C218.313 126.697 206.165 131.951 204.502 140.281C201.916 137.064 198.288 134.855 194.248 134.036C190.207 133.217 186.008 133.839 182.378 135.795C173.682 140.281 169.59 151.944 177.776 158.608C171.764 160.018 169.079 166.041 169.846 172.192C171.741 183.215 182.866 188.982 190.413 183.728Z" fill="#3EC491"/>
<path d="M329.046 393.011C219.785 391.885 39.544 389.749 -97.824 395.958C-98.7191 395.958 -98.5912 398.778 -97.6961 398.778C34.3941 395.429 155.131 392.857 329.174 396.727C330.318 396.727 330.188 393.022 329.046 393.011Z" fill="#3EC491"/>
<path d="M32.7312 310.356C39.125 310.356 51.659 310.356 60.2267 310.228C62.0996 301.477 63.4197 292.616 64.1791 283.699C57.4018 284.596 44.6119 283.955 38.9854 281.776C37.6604 291.454 35.569 301.011 32.7312 310.356Z" fill="#3EC491"/>
<path d="M-62.02 388.644C-62.3849 387.062 -62.2043 385.403 -61.5076 383.937C-60.811 382.47 -59.6394 381.284 -58.1837 380.571C-54.7311 378.905 -19.3051 378.648 -10.9862 378.264C-10.6026 376.214 -9.45173 370.703 -7.78935 363.527C-28.7231 359.316 -49.9988 357.043 -71.3479 356.735C-73.266 356.735 -72.4988 354.938 -71.3479 354.938C-68.2789 354.81 -65.2099 354.81 -62.1409 354.81C-59.7759 345.437 -56.2527 336.397 -51.6528 327.899C-51.1413 327.002 -49.9904 327.514 -50.3741 328.411C-54.3364 336.943 -57.5049 345.823 -59.8391 354.938C-42.1498 355.616 -24.5368 357.63 -7.14997 360.964C-4.33672 348.787 -0.500481 333.153 3.08002 322.645C6.14902 313.287 11.0083 310.981 17.5322 310.596C21.7921 310.411 26.057 310.368 30.3197 310.468C30.8312 308.93 31.3427 307.392 31.8542 305.47C25.5883 295.218 12.1591 286.117 -6.12698 284.708C-12.3929 292.143 -29.914 291.374 -39.5047 282.273C-45.1312 282.913 -63.6847 287.014 -74.8005 299.575C-90.4036 317.516 -111.631 358.657 -101.401 380.314C-96.3044 391.345 -67.786 389.292 -62.02 388.644Z" fill="#3EC491"/>
<path d="M114.192 88.5054C114.585 85.3016 112.402 69.0242 110.74 67.4864C110.642 67.3836 110.52 67.3068 110.385 67.2628C110.25 67.2188 110.107 67.2091 109.967 67.2345C109.828 67.2599 109.697 67.3197 109.586 67.4084C109.475 67.4971 109.388 67.612 109.333 67.7427C108.821 68.8961 111.89 86.4526 112.274 88.5054C112.323 88.7233 112.445 88.9179 112.62 89.0573C112.794 89.1968 113.01 89.2727 113.233 89.2727C113.456 89.2727 113.673 89.1968 113.847 89.0573C114.021 88.9179 114.143 88.7233 114.192 88.5054Z" fill="#3EC491"/>
<path d="M132.225 153.864C132.32 153.671 132.363 153.456 132.35 153.241C132.337 153.026 132.268 152.818 132.151 152.637C132.034 152.456 131.872 152.309 131.682 152.21C131.491 152.11 131.278 152.062 131.063 152.07C128.889 152.07 125.948 156.301 115.204 154.761C114.041 154.633 113.286 156.301 114.437 156.814C121.228 159.372 131.188 156.297 132.225 153.864Z" fill="#3EC491"/>
<path d="M145.268 131.31C149.878 133.993 154.714 136.266 159.72 138.102C159.94 138.136 160.166 138.099 160.363 137.997C160.561 137.895 160.722 137.732 160.821 137.532C160.921 137.333 160.954 137.107 160.917 136.886C160.881 136.666 160.775 136.464 160.616 136.308C156.024 133.624 151.184 131.392 146.163 129.644C145.943 129.525 145.684 129.499 145.444 129.571C145.205 129.643 145.003 129.808 144.885 130.029C144.766 130.249 144.74 130.509 144.812 130.749C144.883 130.989 145.048 131.191 145.268 131.31Z" fill="#3EC491"/>
<path d="M120.844 159.633C120.582 159.577 120.308 159.622 120.077 159.757C119.846 159.893 119.673 160.11 119.593 160.367C119.513 160.623 119.531 160.9 119.645 161.144C119.758 161.388 119.958 161.58 120.205 161.684C123.402 163.478 129.04 161.427 126.854 159.505C125.841 158.608 124.292 160.304 120.844 159.633Z" fill="#3EC491"/>
<path d="M142.455 101.192C144.364 100.4 154.606 88.3772 156.268 86.0705C156.907 85.1734 155.501 84.2764 154.733 84.9171C150.498 89.013 146.485 93.3335 142.711 97.8603C140.281 100.551 141.555 101.565 142.455 101.192Z" fill="#3EC491"/>
<path d="M110.228 141.69C110.331 141.919 110.511 142.104 110.737 142.214C110.963 142.323 111.22 142.35 111.464 142.289C111.707 142.228 111.922 142.083 112.07 141.88C112.218 141.677 112.29 141.428 112.274 141.177C111.378 135.539 106.263 132.323 103.439 127.721C97.5563 118.108 105.357 107.087 115.331 104.524C123.517 102.345 132.724 105.293 134.898 115.16C136.816 123.621 132.98 129.772 130.295 137.461C129.783 139.127 131.457 139.639 132.213 138.102C135.665 131.578 138.99 123.749 137.967 116.314C136.177 104.396 126.203 99.1417 115.075 101.833C105.357 104.268 97.0448 112.726 98.7072 123.364C100.125 132.079 107.747 134.485 110.228 141.69Z" fill="#3EC491"/>
<path d="M113.053 151.429C115.996 152.478 119.139 152.839 122.242 152.483C125.345 152.128 128.325 151.066 130.956 149.379C132.107 148.482 131.595 146.56 129.933 147.201C123.156 149.635 120.47 150.276 113.818 149.379C112.658 149.251 111.891 150.929 113.053 151.429Z" fill="#3EC491"/>
<path d="M77.8731 142.074C76.9826 143.239 77.8731 144.766 80.4306 142.971C83.983 140.756 87.361 138.271 90.535 135.539C90.705 135.39 90.8151 135.184 90.8449 134.96C90.8747 134.736 90.822 134.508 90.6968 134.32C90.5716 134.132 90.3824 133.996 90.1644 133.937C89.9464 133.878 89.7145 133.901 89.512 134.001C85.4022 136.343 81.5074 139.044 77.8731 142.074Z" fill="#3EC491"/>
<path d="M87.4781 107.856C87.6892 107.911 87.913 107.89 88.1103 107.797C88.3076 107.703 88.4658 107.543 88.5573 107.345C88.6487 107.146 88.6676 106.922 88.6106 106.711C88.5535 106.5 88.4243 106.315 88.2453 106.19C83.1305 102.866 77.7883 99.9076 72.2586 97.3361C72.0288 97.2639 71.7808 97.276 71.559 97.3704C71.3373 97.4648 71.1564 97.6352 71.0487 97.8511C70.941 98.067 70.9135 98.3143 70.9711 98.5487C71.0288 98.7831 71.1679 98.9892 71.3635 99.1302C76.5224 102.417 81.9074 105.333 87.4781 107.856Z" fill="#3EC491"/>
<path d="M113.053 146.557C117.299 147.893 128.017 145.789 130.319 143.994C131.853 142.713 130.446 140.919 128.528 141.688C123.756 143.504 118.665 144.332 113.565 144.123C111.251 143.994 110.879 145.882 113.053 146.557Z" fill="#3EC491"/>
<path d="M123.401 139.127C123.237 132.373 123.838 125.623 125.191 119.005C125.223 118.791 125.174 118.574 125.053 118.395C124.932 118.217 124.748 118.091 124.538 118.042C124.328 117.993 124.107 118.026 123.92 118.133C123.733 118.241 123.594 118.415 123.529 118.621C121.847 125.316 121.242 132.238 121.739 139.125C121.733 139.238 121.75 139.351 121.788 139.457C121.827 139.563 121.888 139.661 121.965 139.743C122.043 139.825 122.136 139.891 122.24 139.936C122.344 139.981 122.456 140.004 122.569 140.004C122.682 140.004 122.794 139.981 122.897 139.937C123.001 139.892 123.095 139.827 123.173 139.745C123.251 139.663 123.311 139.566 123.35 139.459C123.39 139.353 123.407 139.24 123.401 139.127Z" fill="#3EC491"/>
<path d="M120.332 117.854C116.952 118.758 113.47 119.228 109.972 119.252C109.779 119.253 109.59 119.307 109.424 119.407C109.259 119.506 109.124 119.649 109.032 119.819C108.94 119.99 108.896 120.181 108.904 120.375C108.912 120.568 108.972 120.756 109.077 120.918C111.698 126.857 114.004 132.931 115.984 139.115C116.368 140.28 117.519 140.012 117.263 138.859C116.068 132.809 114.179 126.918 111.634 121.302C114.816 121.152 117.96 120.548 120.971 119.508C121.166 119.407 121.316 119.237 121.394 119.032C121.471 118.826 121.47 118.599 121.391 118.394C121.312 118.189 121.16 118.021 120.965 117.921C120.769 117.821 120.544 117.797 120.332 117.854Z" fill="#3EC491"/>
<path d="M27.6165 207.179C27.9323 213.31 26.9697 219.439 24.79 225.176C22.6103 230.913 19.2614 236.131 14.9568 240.498C12.5272 242.933 14.5732 243.446 17.0028 242.549C28.5116 238.064 38.8578 224.864 41.8106 213.072C42.3221 211.022 40.5318 211.15 40.2761 212.431C38.7063 218.229 35.9674 223.642 32.2285 228.337C28.4895 233.032 23.8299 236.91 18.5373 239.73C26.3659 230.9 30.4525 219.361 29.9298 207.562C29.802 205.639 29.5462 205.511 27.2445 205.127C7.54938 202.051 0.2605 173.728 31.3365 162.322C59.0877 152.196 80.4451 171.037 75.5835 190.005C72.003 204.23 56.9138 206.408 44.5076 206.408C42.8452 206.408 42.9731 208.459 44.6355 208.459C57.423 208.715 72.003 206.921 76.7344 194.106C86.9644 166.808 58.3204 151.933 34.1497 158.734C-4.994 170.014 4.85238 206.282 27.6165 207.179Z" fill="#3EC491"/>
</svg>
